<svg width="250" height="250" viewBox="0 0 250 250" fill="none" xmlns="http://www.w3.org/2000/svg">
<g filter="url(#filter0_d_14_63)">
<path d="M121.671 15.0988C122.719 11.8742 127.281 11.8742 128.329 15.0988L150.515 83.3815C151.385 86.0596 153.881 87.8729 156.697 87.8729H228.494C231.884 87.8729 233.294 92.2115 230.551 94.2044L172.466 136.405C170.188 138.061 169.235 140.995 170.105 143.673L192.291 211.955C193.339 215.18 189.648 217.861 186.905 215.869L128.821 173.667C126.542 172.012 123.458 172.012 121.179 173.667L63.0946 215.869C60.3517 217.861 56.661 215.18 57.7087 211.955L79.8951 143.673C80.7653 140.995 79.812 138.061 77.5339 136.405L19.4491 94.2044C16.7061 92.2115 18.1158 87.8729 21.5064 87.8729H93.303C96.119 87.8729 98.6147 86.0596 99.4849 83.3815L121.671 15.0988Z" fill="#DAA520" fill-opacity="0.4" stroke="#FFFF9D" stroke-width="3"/>
<g filter="url(#filter1_dd_14_63)">
<path d="M110.508 110V93.2H113.052L119.172 103.16L117.948 103.136L124.14 93.2H126.54V110H123.948V103.112C123.948 101.672 123.98 100.376 124.044 99.224C124.124 98.072 124.252 96.928 124.428 95.792L124.764 96.68L119.268 105.176H117.684L112.356 96.776L112.62 95.792C112.796 96.864 112.916 97.968 112.98 99.104C113.06 100.224 113.1 101.56 113.1 103.112V110H110.508ZM132.738 115.52L135.282 109.64L135.306 111.608L129.018 97.4H131.898L135.834 106.664C135.914 106.824 136.01 107.072 136.122 107.408C136.234 107.728 136.33 108.048 136.41 108.368L135.786 108.512C135.914 108.176 136.034 107.84 136.146 107.504C136.274 107.168 136.394 106.832 136.506 106.496L139.794 97.4H142.722L137.538 110L135.402 115.52H132.738ZM100.891 140.24C99.9795 140.24 99.1315 140.12 98.3475 139.88C97.5795 139.64 96.8755 139.28 96.2355 138.8C95.6115 138.304 95.0515 137.696 94.5555 136.976L96.3315 134.936C97.1155 136.056 97.8675 136.832 98.5875 137.264C99.3075 137.696 100.163 137.912 101.155 137.912C101.763 137.912 102.315 137.816 102.811 137.624C103.307 137.432 103.699 137.168 103.987 136.832C104.275 136.496 104.419 136.112 104.419 135.68C104.419 135.392 104.371 135.12 104.275 134.864C104.179 134.608 104.027 134.376 103.819 134.168C103.627 133.96 103.371 133.768 103.051 133.592C102.747 133.416 102.387 133.264 101.971 133.136C101.555 132.992 101.075 132.872 100.531 132.776C99.6675 132.6 98.9155 132.368 98.2755 132.08C97.6355 131.792 97.0995 131.432 96.6675 131C96.2355 130.568 95.9155 130.08 95.7075 129.536C95.4995 128.976 95.3955 128.352 95.3955 127.664C95.3955 126.992 95.5395 126.368 95.8275 125.792C96.1315 125.216 96.5395 124.72 97.0515 124.304C97.5795 123.872 98.1955 123.544 98.8995 123.32C99.6035 123.08 100.363 122.96 101.179 122.96C102.043 122.96 102.835 123.072 103.555 123.296C104.275 123.52 104.915 123.856 105.475 124.304C106.035 124.736 106.499 125.272 106.867 125.912L105.043 127.712C104.723 127.184 104.363 126.744 103.963 126.392C103.563 126.024 103.123 125.752 102.643 125.576C102.163 125.384 101.651 125.288 101.107 125.288C100.483 125.288 99.9395 125.384 99.4755 125.576C99.0115 125.768 98.6435 126.04 98.3715 126.392C98.1155 126.728 97.9875 127.128 97.9875 127.592C97.9875 127.928 98.0515 128.24 98.1795 128.528C98.3075 128.8 98.4995 129.048 98.7555 129.272C99.0275 129.48 99.3875 129.672 99.8355 129.848C100.283 130.008 100.819 130.152 101.443 130.28C102.323 130.472 103.107 130.72 103.795 131.024C104.483 131.312 105.067 131.656 105.547 132.056C106.027 132.456 106.387 132.904 106.627 133.4C106.883 133.896 107.011 134.432 107.011 135.008C107.011 136.08 106.763 137.008 106.267 137.792C105.771 138.576 105.067 139.184 104.155 139.616C103.243 140.032 102.155 140.24 100.891 140.24ZM112.316 136.064L112.196 133.376L118.22 127.4H121.556L112.316 136.064ZM110.06 140V122.24H112.532V140H110.06ZM118.556 140L113.804 134.456L115.556 132.848L121.724 140H118.556ZM124.109 140V127.4H126.581V140H124.109ZM125.309 124.616C124.781 124.616 124.373 124.48 124.085 124.208C123.797 123.936 123.653 123.552 123.653 123.056C123.653 122.592 123.797 122.216 124.085 121.928C124.389 121.64 124.797 121.496 125.309 121.496C125.837 121.496 126.245 121.632 126.533 121.904C126.821 122.176 126.965 122.56 126.965 123.056C126.965 123.52 126.813 123.896 126.509 124.184C126.221 124.472 125.821 124.616 125.309 124.616ZM130.428 140V122.24H132.9V140H130.428ZM136.452 140V122.24H138.924V140H136.452ZM146.627 140.24C145.571 140.24 144.619 140.056 143.771 139.688C142.923 139.32 142.219 138.776 141.659 138.056L143.339 136.616C143.819 137.176 144.339 137.584 144.899 137.84C145.475 138.08 146.123 138.2 146.843 138.2C147.131 138.2 147.395 138.168 147.635 138.104C147.891 138.024 148.107 137.912 148.283 137.768C148.475 137.624 148.619 137.456 148.715 137.264C148.811 137.056 148.859 136.832 148.859 136.592C148.859 136.176 148.707 135.84 148.403 135.584C148.243 135.472 147.987 135.352 147.635 135.224C147.299 135.08 146.859 134.936 146.315 134.792C145.387 134.552 144.627 134.28 144.035 133.976C143.443 133.672 142.987 133.328 142.667 132.944C142.427 132.64 142.251 132.312 142.139 131.96C142.027 131.592 141.971 131.192 141.971 130.76C141.971 130.232 142.083 129.752 142.307 129.32C142.547 128.872 142.867 128.488 143.267 128.168C143.683 127.832 144.163 127.576 144.707 127.4C145.267 127.224 145.859 127.136 146.483 127.136C147.075 127.136 147.659 127.216 148.235 127.376C148.827 127.536 149.371 127.768 149.867 128.072C150.363 128.376 150.779 128.736 151.115 129.152L149.699 130.712C149.395 130.408 149.059 130.144 148.691 129.92C148.339 129.68 147.979 129.496 147.611 129.368C147.243 129.24 146.907 129.176 146.603 129.176C146.267 129.176 145.963 129.208 145.691 129.272C145.419 129.336 145.187 129.432 144.995 129.56C144.819 129.688 144.683 129.848 144.587 130.04C144.491 130.232 144.443 130.448 144.443 130.688C144.459 130.896 144.507 131.096 144.587 131.288C144.683 131.464 144.811 131.616 144.971 131.744C145.147 131.872 145.411 132.008 145.763 132.152C146.115 132.296 146.563 132.432 147.107 132.56C147.907 132.768 148.563 133 149.075 133.256C149.603 133.496 150.019 133.776 150.323 134.096C150.643 134.4 150.867 134.752 150.995 135.152C151.123 135.552 151.187 136 151.187 136.496C151.187 137.216 150.979 137.864 150.563 138.44C150.163 139 149.619 139.44 148.931 139.76C148.243 140.08 147.475 140.24 146.627 140.24ZM154.92 140.24C154.392 140.24 153.984 140.088 153.696 139.784C153.408 139.464 153.264 139.016 153.264 138.44C153.264 137.912 153.416 137.48 153.72 137.144C154.024 136.808 154.424 136.64 154.92 136.64C155.448 136.64 155.856 136.8 156.144 137.12C156.432 137.424 156.576 137.864 156.576 138.44C156.576 138.968 156.424 139.4 156.12 139.736C155.816 140.072 155.416 140.24 154.92 140.24ZM154.92 130.76C154.392 130.76 153.984 130.608 153.696 130.304C153.408 129.984 153.264 129.536 153.264 128.96C153.264 128.432 153.416 128 153.72 127.664C154.024 127.328 154.424 127.16 154.92 127.16C155.448 127.16 155.856 127.32 156.144 127.64C156.432 127.944 156.576 128.384 156.576 128.96C156.576 129.488 156.424 129.92 156.12 130.256C155.816 130.592 155.416 130.76 154.92 130.76Z" fill="white" shape-rendering="crispEdges"/>
<path d="M110.508 110H109.508V111H110.508V110ZM110.508 93.2V92.2H109.508V93.2H110.508ZM113.052 93.2L113.904 92.6765L113.611 92.2H113.052V93.2ZM119.172 103.16L119.153 104.16L120.982 104.196L120.024 102.636L119.172 103.16ZM117.948 103.136L117.1 102.607L116.168 104.101L117.929 104.136L117.948 103.136ZM124.14 93.2V92.2H123.585L123.292 92.6711L124.14 93.2ZM126.54 93.2H127.54V92.2H126.54V93.2ZM126.54 110V111H127.54V110H126.54ZM123.948 110H122.948V111H123.948V110ZM124.044 99.224L123.047 99.1547L123.046 99.1685L124.044 99.224ZM124.428 95.792L125.364 95.4381L124.021 91.8897L123.44 95.6389L124.428 95.792ZM124.764 96.68L125.604 97.2232L125.878 96.7988L125.7 96.3261L124.764 96.68ZM119.268 105.176V106.176H119.812L120.108 105.719L119.268 105.176ZM117.684 105.176L116.84 105.712L117.134 106.176H117.684V105.176ZM112.356 96.776L111.39 96.5169L111.277 96.9409L111.512 97.3116L112.356 96.776ZM112.62 95.792L113.607 95.63L111.654 95.5329L112.62 95.792ZM112.98 99.104L111.982 99.1602L111.982 99.1678L111.983 99.1752L112.98 99.104ZM113.1 110V111H114.1V110H113.1ZM111.508 110V93.2H109.508V110H111.508ZM110.508 94.2H113.052V92.2H110.508V94.2ZM112.2 93.7235L118.32 103.684L120.024 102.636L113.904 92.6765L112.2 93.7235ZM119.192 102.16L117.968 102.136L117.929 104.136L119.153 104.16L119.192 102.16ZM118.797 103.665L124.989 93.7289L123.292 92.6711L117.1 102.607L118.797 103.665ZM124.14 94.2H126.54V92.2H124.14V94.2ZM125.54 93.2V110H127.54V93.2H125.54ZM126.54 109H123.948V111H126.54V109ZM124.948 110V103.112H122.948V110H124.948ZM124.948 103.112C124.948 101.686 124.98 100.409 125.043 99.2795L123.046 99.1685C122.981 100.343 122.948 101.658 122.948 103.112H124.948ZM125.042 99.2933C125.12 98.1692 125.245 97.0532 125.416 95.9451L123.44 95.6389C123.26 96.8028 123.129 97.9748 123.047 99.1547L125.042 99.2933ZM123.493 96.1459L123.829 97.0339L125.7 96.3261L125.364 95.4381L123.493 96.1459ZM123.925 96.1368L118.429 104.633L120.108 105.719L125.604 97.2232L123.925 96.1368ZM119.268 104.176H117.684V106.176H119.268V104.176ZM118.529 104.64L113.201 96.2404L111.512 97.3116L116.84 105.712L118.529 104.64ZM113.322 97.0351L113.586 96.0511L111.654 95.5329L111.39 96.5169L113.322 97.0351ZM111.633 95.954C111.803 96.9894 111.92 98.058 111.982 99.1602L113.979 99.0478C113.913 97.878 113.789 96.7386 113.607 95.63L111.633 95.954ZM111.983 99.1752C112.061 100.265 112.1 101.576 112.1 103.112H114.1C114.1 101.544 114.06 100.183 113.978 99.0328L111.983 99.1752ZM112.1 103.112V110H114.1V103.112H112.1ZM113.1 109H110.508V111H113.1V109ZM132.738 115.52L131.821 115.123L131.216 116.52H132.738V115.52ZM135.282 109.64L136.282 109.628L134.365 109.243L135.282 109.64ZM135.306 111.608L134.392 112.013L136.306 111.596L135.306 111.608ZM129.018 97.4V96.4H127.482L128.104 97.8047L129.018 97.4ZM131.898 97.4L132.819 97.009L132.56 96.4H131.898V97.4ZM135.834 106.664L134.914 107.055L134.926 107.084L134.94 107.111L135.834 106.664ZM136.122 107.408L135.174 107.724L135.176 107.731L135.179 107.738L136.122 107.408ZM136.41 108.368L136.635 109.342L137.628 109.113L137.381 108.125L136.41 108.368ZM135.786 108.512L134.852 108.156L134.185 109.908L136.011 109.486L135.786 108.512ZM136.146 107.504L135.212 107.148L135.204 107.168L135.198 107.188L136.146 107.504ZM136.506 106.496L135.566 106.156L135.562 106.168L135.558 106.18L136.506 106.496ZM139.794 97.4V96.4H139.093L138.854 97.06L139.794 97.4ZM142.722 97.4L143.647 97.7805L144.215 96.4H142.722V97.4ZM137.538 110L136.614 109.62L136.61 109.629L136.606 109.639L137.538 110ZM135.402 115.52V116.52H136.088L136.335 115.881L135.402 115.52ZM133.656 115.917L136.2 110.037L134.365 109.243L131.821 115.123L133.656 115.917ZM134.283 109.652L134.307 111.62L136.306 111.596L136.282 109.628L134.283 109.652ZM136.221 111.203L129.933 96.9953L128.104 97.8047L134.392 112.013L136.221 111.203ZM129.018 98.4H131.898V96.4H129.018V98.4ZM130.978 97.791L134.914 107.055L136.755 106.273L132.819 97.009L130.978 97.791ZM134.94 107.111C134.987 107.206 135.065 107.399 135.174 107.724L137.071 107.092C136.956 106.745 136.842 106.442 136.729 106.217L134.94 107.111ZM135.179 107.738C135.281 108.03 135.368 108.321 135.44 108.611L137.381 108.125C137.293 107.775 137.188 107.426 137.066 107.078L135.179 107.738ZM136.186 107.394L135.562 107.538L136.011 109.486L136.635 109.342L136.186 107.394ZM136.721 108.868C136.854 108.519 136.979 108.17 137.095 107.82L135.198 107.188C135.09 107.51 134.975 107.833 134.852 108.156L136.721 108.868ZM137.081 107.86C137.214 107.511 137.339 107.162 137.455 106.812L135.558 106.18C135.45 106.502 135.335 106.825 135.212 107.148L137.081 107.86ZM137.447 106.836L140.735 97.7399L138.854 97.06L135.566 106.156L137.447 106.836ZM139.794 98.4H142.722V96.4H139.794V98.4ZM141.798 97.0195L136.614 109.62L138.463 110.38L143.647 97.7805L141.798 97.0195ZM136.606 109.639L134.47 115.159L136.335 115.881L138.471 110.361L136.606 109.639ZM135.402 114.52H132.738V116.52H135.402V114.52ZM98.3475 139.88L98.0492 140.834L98.0548 140.836L98.3475 139.88ZM96.2355 138.8L95.6132 139.583L95.6242 139.592L95.6355 139.6L96.2355 138.8ZM94.5555 136.976L93.8012 136.319L93.2919 136.904L93.732 137.543L94.5555 136.976ZM96.3315 134.936L97.1507 134.363L96.4172 133.315L95.5772 134.279L96.3315 134.936ZM98.5875 137.264L99.102 136.407L99.102 136.407L98.5875 137.264ZM102.811 137.624L103.172 138.557L103.172 138.557L102.811 137.624ZM103.987 136.832L104.747 137.483L104.747 137.483L103.987 136.832ZM104.275 134.864L103.339 135.215L103.339 135.215L104.275 134.864ZM103.819 134.168L103.085 134.846L103.098 134.861L103.112 134.875L103.819 134.168ZM103.051 133.592L102.55 134.457L102.56 134.463L102.57 134.468L103.051 133.592ZM101.971 133.136L101.644 134.081L101.661 134.087L101.677 134.092L101.971 133.136ZM100.531 132.776L100.332 133.756L100.345 133.758L100.358 133.761L100.531 132.776ZM98.2755 132.08L98.6858 131.168L98.6858 131.168L98.2755 132.08ZM96.6675 131L97.3746 130.293L97.3746 130.293L96.6675 131ZM95.7075 129.536L94.77 129.884L94.7734 129.893L95.7075 129.536ZM95.8275 125.792L94.9431 125.325L94.938 125.335L94.933 125.345L95.8275 125.792ZM97.0515 124.304L97.6821 125.08L97.6847 125.078L97.0515 124.304ZM98.8995 123.32L99.2027 124.273L99.2124 124.27L99.2221 124.267L98.8995 123.32ZM103.555 123.296L103.258 124.251L103.258 124.251L103.555 123.296ZM105.475 124.304L104.851 125.085L104.858 125.09L104.865 125.096L105.475 124.304ZM106.867 125.912L107.57 126.624L108.119 126.082L107.734 125.414L106.867 125.912ZM105.043 127.712L104.188 128.23L104.845 129.313L105.746 128.424L105.043 127.712ZM103.963 126.392L103.286 127.128L103.295 127.135L103.303 127.143L103.963 126.392ZM102.643 125.576L102.272 126.504L102.286 126.51L102.299 126.515L102.643 125.576ZM99.4755 125.576L99.8578 126.5L99.8578 126.5L99.4755 125.576ZM98.3715 126.392L97.5802 125.781L97.576 125.786L98.3715 126.392ZM98.1795 128.528L97.2657 128.934L97.27 128.944L97.2747 128.954L98.1795 128.528ZM98.7555 129.272L98.097 130.025L98.1218 130.046L98.148 130.066L98.7555 129.272ZM99.8355 129.848L99.4698 130.779L99.4844 130.784L99.4991 130.79L99.8355 129.848ZM101.443 130.28L101.657 129.303L101.644 129.3L101.443 130.28ZM103.795 131.024L103.391 131.939L103.4 131.943L103.409 131.946L103.795 131.024ZM105.547 132.056L106.188 131.288L106.188 131.288L105.547 132.056ZM106.627 133.4L105.727 133.836L105.733 133.847L105.739 133.859L106.627 133.4ZM106.267 137.792L107.113 138.327L107.113 138.327L106.267 137.792ZM104.155 139.616L104.57 140.526L104.577 140.523L104.584 140.52L104.155 139.616ZM100.891 139.24C100.068 139.24 99.3193 139.132 98.6402 138.924L98.0548 140.836C98.9436 141.108 99.8913 141.24 100.891 141.24V139.24ZM98.6457 138.926C97.9857 138.719 97.3839 138.411 96.8355 138L95.6355 139.6C96.3671 140.149 97.1732 140.561 98.0492 140.834L98.6457 138.926ZM96.8577 138.017C96.3182 137.588 95.8243 137.055 95.379 136.409L93.732 137.543C94.2786 138.337 94.9048 139.02 95.6132 139.583L96.8577 138.017ZM95.3097 137.633L97.0857 135.593L95.5772 134.279L93.8012 136.319L95.3097 137.633ZM95.5122 135.509C96.3323 136.681 97.1803 137.586 98.073 138.121L99.102 136.407C98.5547 136.078 97.8987 135.431 97.1507 134.363L95.5122 135.509ZM98.073 138.121C98.9746 138.662 100.015 138.912 101.155 138.912V136.912C100.312 136.912 99.6404 136.73 99.102 136.407L98.073 138.121ZM101.155 138.912C101.869 138.912 102.546 138.799 103.172 138.557L102.45 136.691C102.085 136.833 101.657 136.912 101.155 136.912V138.912ZM103.172 138.557C103.792 138.317 104.332 137.967 104.747 137.483L103.228 136.181C103.067 136.369 102.823 136.547 102.45 136.691L103.172 138.557ZM104.747 137.483C105.186 136.97 105.419 136.357 105.419 135.68H103.419C103.419 135.867 103.365 136.022 103.228 136.181L104.747 137.483ZM105.419 135.68C105.419 135.279 105.352 134.887 105.212 134.513L103.339 135.215C103.391 135.353 103.419 135.505 103.419 135.68H105.419ZM105.212 134.513C105.062 134.113 104.828 133.762 104.527 133.461L103.112 134.875C103.227 134.99 103.297 135.103 103.339 135.215L105.212 134.513ZM104.554 133.49C104.272 133.183 103.922 132.929 103.533 132.716L102.57 134.468C102.821 134.607 102.983 134.737 103.085 134.846L104.554 133.49ZM103.553 132.727C103.17 132.505 102.737 132.325 102.266 132.18L101.677 134.092C102.038 134.203 102.325 134.327 102.55 134.457L103.553 132.727ZM102.299 132.191C101.822 132.026 101.289 131.894 100.705 131.791L100.358 133.761C100.862 133.85 101.289 133.958 101.644 134.081L102.299 132.191ZM100.731 131.796C99.922 131.631 99.2437 131.419 98.6858 131.168L97.8651 132.992C98.5872 133.317 99.4129 133.569 100.332 133.756L100.731 131.796ZM98.6858 131.168C98.1401 130.923 97.7091 130.627 97.3746 130.293L95.9604 131.707C96.4898 132.237 97.1308 132.661 97.8651 132.992L98.6858 131.168ZM97.3746 130.293C97.037 129.955 96.7969 129.585 96.6415 129.179L94.7734 129.893C95.0341 130.575 95.4339 131.181 95.9604 131.707L97.3746 130.293ZM96.6449 129.188C96.484 128.755 96.3955 128.251 96.3955 127.664H94.3955C94.3955 128.453 94.5149 129.197 94.77 129.884L96.6449 129.188ZM96.3955 127.664C96.3955 127.14 96.5064 126.67 96.7219 126.239L94.933 125.345C94.5726 126.066 94.3955 126.844 94.3955 127.664H96.3955ZM96.7119 126.259C96.9521 125.803 97.2733 125.412 97.6821 125.08L96.4209 123.528C95.8057 124.028 95.3108 124.629 94.9431 125.325L96.7119 126.259ZM97.6847 125.078C98.1071 124.732 98.609 124.462 99.2027 124.273L98.5963 122.367C97.782 122.626 97.0518 123.012 96.4182 123.53L97.6847 125.078ZM99.2221 124.267C99.8127 124.065 100.463 123.96 101.179 123.96V121.96C100.264 121.96 99.3943 122.095 98.5768 122.373L99.2221 124.267ZM101.179 123.96C101.957 123.96 102.647 124.061 103.258 124.251L103.853 122.341C103.024 122.083 102.13 121.96 101.179 121.96V123.96ZM103.258 124.251C103.866 124.44 104.393 124.719 104.851 125.085L106.1 123.523C105.438 122.993 104.685 122.6 103.853 122.341L103.258 124.251ZM104.865 125.096C105.316 125.444 105.695 125.879 106.001 126.41L107.734 125.414C107.304 124.665 106.755 124.028 106.086 123.512L104.865 125.096ZM106.165 125.2L104.341 127L105.746 128.424L107.57 126.624L106.165 125.2ZM105.899 127.194C105.534 126.592 105.111 126.07 104.624 125.641L103.303 127.143C103.616 127.418 103.913 127.776 104.188 128.23L105.899 127.194ZM104.641 125.656C104.15 125.205 103.599 124.861 102.988 124.637L102.299 126.515C102.648 126.643 102.977 126.843 103.286 127.128L104.641 125.656ZM103.015 124.648C102.411 124.406 101.772 124.288 101.107 124.288V126.288C101.531 126.288 101.916 126.362 102.272 126.504L103.015 124.648ZM101.107 124.288C100.383 124.288 99.7039 124.399 99.0931 124.652L99.8578 126.5C100.175 126.369 100.584 126.288 101.107 126.288V124.288ZM99.0931 124.652C98.489 124.902 97.9721 125.273 97.5802 125.781L99.1628 127.003C99.3149 126.807 99.5339 126.634 99.8578 126.5L99.0931 124.652ZM97.576 125.786C97.1741 126.313 96.9875 126.932 96.9875 127.592H98.9875C98.9875 127.324 99.0568 127.143 99.1669 126.998L97.576 125.786ZM96.9875 127.592C96.9875 128.059 97.0771 128.51 97.2657 128.934L99.0933 128.122C99.0258 127.97 98.9875 127.797 98.9875 127.592H96.9875ZM97.2747 128.954C97.4686 129.366 97.7508 129.722 98.097 130.025L99.414 128.519C99.2481 128.374 99.1463 128.234 99.0843 128.102L97.2747 128.954ZM98.148 130.066C98.517 130.349 98.9674 130.581 99.4698 130.779L100.201 128.917C99.8076 128.763 99.5379 128.611 99.3629 128.478L98.148 130.066ZM99.4991 130.79C100.003 130.97 100.587 131.125 101.243 131.26L101.644 129.3C101.052 129.179 100.564 129.046 100.172 128.906L99.4991 130.79ZM101.23 131.257C102.057 131.437 102.775 131.667 103.391 131.939L104.2 130.109C103.44 129.773 102.59 129.507 101.657 129.303L101.23 131.257ZM103.409 131.946C104.023 132.203 104.517 132.499 104.907 132.824L106.188 131.288C105.618 130.813 104.944 130.421 104.182 130.102L103.409 131.946ZM104.907 132.824C105.293 133.145 105.557 133.484 105.727 133.836L107.528 132.964C107.218 132.324 106.762 131.767 106.188 131.288L104.907 132.824ZM105.739 133.859C105.919 134.208 106.011 134.586 106.011 135.008H108.011C108.011 134.278 107.848 133.584 107.516 132.941L105.739 133.859ZM106.011 135.008C106.011 135.921 105.802 136.657 105.422 137.257L107.113 138.327C107.725 137.359 108.011 136.239 108.011 135.008H106.011ZM105.422 137.257C105.036 137.867 104.484 138.354 103.727 138.712L104.584 140.52C105.651 140.014 106.506 139.285 107.113 138.327L105.422 137.257ZM103.74 138.706C102.988 139.049 102.048 139.24 100.891 139.24V141.24C102.262 141.24 103.499 141.015 104.57 140.526L103.74 138.706ZM112.316 136.064L111.317 136.109L111.414 138.281L113 136.793L112.316 136.064ZM112.196 133.376L111.492 132.666L111.177 132.978L111.197 133.421L112.196 133.376ZM118.22 127.4V126.4H117.808L117.516 126.69L118.22 127.4ZM121.556 127.4L122.24 128.129L124.084 126.4H121.556V127.4ZM110.06 140H109.06V141H110.06V140ZM110.06 122.24V121.24H109.06V122.24H110.06ZM112.532 122.24H113.532V121.24H112.532V122.24ZM112.532 140V141H113.532V140H112.532ZM118.556 140L117.797 140.651L118.096 141H118.556V140ZM113.804 134.456L113.128 133.719L112.416 134.373L113.045 135.107L113.804 134.456ZM115.556 132.848L116.313 132.195L115.64 131.414L114.88 132.111L115.556 132.848ZM121.724 140V141H123.907L122.481 139.347L121.724 140ZM113.315 136.019L113.195 133.331L111.197 133.421L111.317 136.109L113.315 136.019ZM112.9 134.086L118.924 128.11L117.516 126.69L111.492 132.666L112.9 134.086ZM118.22 128.4H121.556V126.4H118.22V128.4ZM120.872 126.671L111.632 135.335L113 136.793L122.24 128.129L120.872 126.671ZM111.06 140V122.24H109.06V140H111.06ZM110.06 123.24H112.532V121.24H110.06V123.24ZM111.532 122.24V140H113.532V122.24H111.532ZM112.532 139H110.06V141H112.532V139ZM119.315 139.349L114.563 133.805L113.045 135.107L117.797 140.651L119.315 139.349ZM114.48 135.193L116.232 133.585L114.88 132.111L113.128 133.719L114.48 135.193ZM114.799 133.501L120.967 140.653L122.481 139.347L116.313 132.195L114.799 133.501ZM121.724 139H118.556V141H121.724V139ZM124.109 140H123.109V141H124.109V140ZM124.109 127.4V126.4H123.109V127.4H124.109ZM126.581 127.4H127.581V126.4H126.581V127.4ZM126.581 140V141H127.581V140H126.581ZM124.085 124.208L124.771 123.481L124.771 123.481L124.085 124.208ZM124.085 121.928L123.397 121.202L123.387 121.211L123.378 121.221L124.085 121.928ZM126.533 121.904L125.846 122.631L125.846 122.631L126.533 121.904ZM126.509 124.184L125.821 123.458L125.811 123.467L125.802 123.477L126.509 124.184ZM125.109 140V127.4H123.109V140H125.109ZM124.109 128.4H126.581V126.4H124.109V128.4ZM125.581 127.4V140H127.581V127.4H125.581ZM126.581 139H124.109V141H126.581V139ZM125.309 123.616C124.949 123.616 124.819 123.526 124.771 123.481L123.398 124.935C123.927 125.434 124.612 125.616 125.309 125.616V123.616ZM124.771 123.481C124.731 123.443 124.653 123.351 124.653 123.056H122.653C122.653 123.753 122.862 124.429 123.398 124.935L124.771 123.481ZM124.653 123.056C124.653 122.817 124.718 122.709 124.792 122.635L123.378 121.221C122.875 121.723 122.653 122.367 122.653 123.056H124.653ZM124.772 122.654C124.851 122.579 124.992 122.496 125.309 122.496V120.496C124.601 120.496 123.926 120.701 123.397 121.202L124.772 122.654ZM125.309 122.496C125.668 122.496 125.799 122.586 125.846 122.631L127.219 121.177C126.691 120.678 126.005 120.496 125.309 120.496V122.496ZM125.846 122.631C125.886 122.669 125.965 122.761 125.965 123.056H127.965C127.965 122.359 127.755 121.683 127.219 121.177L125.846 122.631ZM125.965 123.056C125.965 123.278 125.903 123.38 125.821 123.458L127.196 124.91C127.722 124.412 127.965 123.762 127.965 123.056H125.965ZM125.802 123.477C125.746 123.532 125.627 123.616 125.309 123.616V125.616C126.014 125.616 126.695 125.412 127.216 124.891L125.802 123.477ZM130.428 140H129.428V141H130.428V140ZM130.428 122.24V121.24H129.428V122.24H130.428ZM132.9 122.24H133.9V121.24H132.9V122.24ZM132.9 140V141H133.9V140H132.9ZM131.428 140V122.24H129.428V140H131.428ZM130.428 123.24H132.9V121.24H130.428V123.24ZM131.9 122.24V140H133.9V122.24H131.9ZM132.9 139H130.428V141H132.9V139ZM136.452 140H135.452V141H136.452V140ZM136.452 122.24V121.24H135.452V122.24H136.452ZM138.924 122.24H139.924V121.24H138.924V122.24ZM138.924 140V141H139.924V140H138.924ZM137.452 140V122.24H135.452V140H137.452ZM136.452 123.24H138.924V121.24H136.452V123.24ZM137.924 122.24V140H139.924V122.24H137.924ZM138.924 139H136.452V141H138.924V139ZM143.771 139.688L143.373 140.605L143.373 140.605L143.771 139.688ZM141.659 138.056L141.008 137.297L140.284 137.917L140.87 138.67L141.659 138.056ZM143.339 136.616L144.098 135.965L143.448 135.206L142.688 135.857L143.339 136.616ZM144.899 137.84L144.483 138.749L144.499 138.757L144.515 138.763L144.899 137.84ZM147.635 138.104L147.893 139.07L147.913 139.065L147.933 139.058L147.635 138.104ZM148.283 137.768L147.683 136.968L147.666 136.981L147.65 136.994L148.283 137.768ZM148.715 137.264L149.61 137.711L149.617 137.697L149.623 137.683L148.715 137.264ZM148.403 135.584L149.047 134.819L149.013 134.79L148.977 134.765L148.403 135.584ZM147.635 135.224L147.241 136.143L147.267 136.154L147.293 136.164L147.635 135.224ZM146.315 134.792L146.571 133.825L146.566 133.824L146.315 134.792ZM144.035 133.976L144.492 133.086L144.492 133.086L144.035 133.976ZM142.667 132.944L141.882 133.564L141.891 133.574L141.899 133.584L142.667 132.944ZM142.139 131.96L141.182 132.251L141.186 132.263L142.139 131.96ZM142.307 129.32L141.426 128.848L141.419 128.86L142.307 129.32ZM143.267 128.168L143.892 128.949L143.896 128.946L143.267 128.168ZM144.707 127.4L144.407 126.446L144.399 126.449L144.707 127.4ZM148.235 127.376L147.968 128.34L147.974 128.341L148.235 127.376ZM149.867 128.072L149.345 128.925L149.345 128.925L149.867 128.072ZM151.115 129.152L151.856 129.824L152.431 129.19L151.893 128.524L151.115 129.152ZM149.699 130.712L148.992 131.419L149.734 132.161L150.44 131.384L149.699 130.712ZM148.691 129.92L148.128 130.746L148.149 130.761L148.171 130.774L148.691 129.92ZM147.611 129.368L147.283 130.312L147.283 130.312L147.611 129.368ZM145.691 129.272L145.462 128.299L145.462 128.299L145.691 129.272ZM144.995 129.56L144.441 128.728L144.424 128.739L144.407 128.751L144.995 129.56ZM144.587 130.04L143.693 129.593L143.693 129.593L144.587 130.04ZM144.443 130.688H143.443V130.726L143.446 130.765L144.443 130.688ZM144.587 131.288L143.664 131.673L143.684 131.721L143.709 131.767L144.587 131.288ZM144.971 131.744L144.347 132.525L144.364 132.539L144.383 132.553L144.971 131.744ZM147.107 132.56L147.359 131.592L147.348 131.589L147.336 131.587L147.107 132.56ZM149.075 133.256L148.628 134.15L148.645 134.159L148.661 134.166L149.075 133.256ZM150.323 134.096L149.598 134.785L149.616 134.803L149.634 134.821L150.323 134.096ZM150.563 138.44L149.753 137.855L149.749 137.859L150.563 138.44ZM148.931 139.76L149.353 140.667L149.353 140.667L148.931 139.76ZM146.627 139.24C145.689 139.24 144.875 139.077 144.169 138.771L143.373 140.605C144.363 141.035 145.454 141.24 146.627 141.24V139.24ZM144.169 138.771C143.473 138.468 142.904 138.028 142.449 137.442L140.87 138.67C141.534 139.524 142.373 140.172 143.373 140.605L144.169 138.771ZM142.31 138.815L143.99 137.375L142.688 135.857L141.008 137.297L142.31 138.815ZM142.58 137.267C143.136 137.915 143.768 138.422 144.483 138.749L145.315 136.931C144.91 136.746 144.502 136.437 144.098 135.965L142.58 137.267ZM144.515 138.763C145.23 139.061 146.011 139.2 146.843 139.2V137.2C146.235 137.2 145.721 137.099 145.284 136.917L144.515 138.763ZM146.843 139.2C147.205 139.2 147.557 139.16 147.893 139.07L147.378 137.138C147.234 137.176 147.058 137.2 146.843 137.2V139.2ZM147.933 139.058C148.29 138.947 148.625 138.78 148.916 138.542L147.65 136.994C147.589 137.044 147.492 137.101 147.337 137.15L147.933 139.058ZM148.883 138.568C149.185 138.342 149.436 138.058 149.61 137.711L147.821 136.817C147.802 136.854 147.766 136.906 147.683 136.968L148.883 138.568ZM149.623 137.683C149.783 137.337 149.859 136.97 149.859 136.592H147.859C147.859 136.694 147.84 136.775 147.807 136.845L149.623 137.683ZM149.859 136.592C149.859 135.897 149.589 135.275 149.047 134.819L147.759 136.349C147.826 136.405 147.859 136.455 147.859 136.592H149.859ZM148.977 134.765C148.707 134.576 148.351 134.42 147.977 134.284L147.293 136.164C147.624 136.284 147.78 136.368 147.83 136.403L148.977 134.765ZM148.029 134.305C147.631 134.134 147.14 133.976 146.571 133.825L146.059 135.759C146.578 135.896 146.967 136.026 147.241 136.143L148.029 134.305ZM146.566 133.824C145.681 133.595 144.997 133.346 144.492 133.086L143.578 134.866C144.258 135.214 145.094 135.509 146.065 135.76L146.566 133.824ZM144.492 133.086C143.982 132.825 143.646 132.557 143.435 132.304L141.899 133.584C142.328 134.099 142.904 134.519 143.578 134.866L144.492 133.086ZM143.452 132.324C143.283 132.11 143.166 131.889 143.092 131.657L141.186 132.263C141.337 132.735 141.571 133.17 141.882 133.564L143.452 132.324ZM143.096 131.669C143.016 131.406 142.971 131.105 142.971 130.76H140.971C140.971 131.279 141.039 131.778 141.183 132.251L143.096 131.669ZM142.971 130.76C142.971 130.378 143.051 130.058 143.195 129.78L141.419 128.86C141.116 129.446 140.971 130.086 140.971 130.76H142.971ZM143.189 129.792C143.364 129.464 143.597 129.185 143.892 128.949L142.643 127.387C142.138 127.791 141.73 128.28 141.426 128.848L143.189 129.792ZM143.896 128.946C144.21 128.692 144.579 128.492 145.015 128.351L144.399 126.449C143.747 126.66 143.157 126.972 142.639 127.39L143.896 128.946ZM145.007 128.354C145.464 128.21 145.954 128.136 146.483 128.136V126.136C145.764 126.136 145.07 126.238 144.407 126.446L145.007 128.354ZM146.483 128.136C146.984 128.136 147.478 128.203 147.968 128.34L148.503 126.412C147.841 126.229 147.167 126.136 146.483 126.136V128.136ZM147.974 128.341C148.479 128.478 148.934 128.673 149.345 128.925L150.39 127.219C149.808 126.863 149.175 126.594 148.496 126.411L147.974 128.341ZM149.345 128.925C149.752 129.174 150.079 129.461 150.337 129.78L151.893 128.524C151.479 128.011 150.975 127.578 150.39 127.219L149.345 128.925ZM150.375 128.48L148.959 130.04L150.44 131.384L151.856 129.824L150.375 128.48ZM150.406 130.005C150.046 129.644 149.647 129.331 149.211 129.066L148.171 130.774C148.471 130.957 148.745 131.172 148.992 131.419L150.406 130.005ZM149.255 129.094C148.837 128.809 148.398 128.583 147.94 128.424L147.283 130.312C147.56 130.409 147.842 130.551 148.128 130.746L149.255 129.094ZM147.94 128.424C147.494 128.269 147.046 128.176 146.603 128.176V130.176C146.769 130.176 146.992 130.211 147.283 130.312L147.94 128.424ZM146.603 128.176C146.205 128.176 145.823 128.214 145.462 128.299L145.92 130.245C146.104 130.202 146.329 130.176 146.603 130.176V128.176ZM145.462 128.299C145.098 128.384 144.75 128.521 144.441 128.728L145.55 130.392C145.624 130.343 145.741 130.288 145.92 130.245L145.462 128.299ZM144.407 128.751C144.103 128.972 143.861 129.255 143.693 129.593L145.482 130.487C145.505 130.441 145.535 130.404 145.583 130.369L144.407 128.751ZM143.693 129.593C143.52 129.939 143.443 130.311 143.443 130.688H145.443C145.443 130.585 145.463 130.525 145.482 130.487L143.693 129.593ZM143.446 130.765C143.47 131.078 143.543 131.382 143.664 131.673L145.51 130.903C145.471 130.81 145.448 130.714 145.44 130.611L143.446 130.765ZM143.709 131.767C143.87 132.062 144.085 132.316 144.347 132.525L145.596 130.963C145.537 130.916 145.496 130.866 145.465 130.809L143.709 131.767ZM144.383 132.553C144.655 132.75 145.005 132.922 145.385 133.078L146.142 131.226C145.818 131.094 145.64 130.994 145.559 130.935L144.383 132.553ZM145.385 133.078C145.802 133.248 146.304 133.398 146.878 133.533L147.336 131.587C146.822 131.466 146.429 131.344 146.142 131.226L145.385 133.078ZM146.856 133.528C147.615 133.725 148.199 133.936 148.628 134.15L149.522 132.362C148.927 132.064 148.199 131.811 147.359 131.592L146.856 133.528ZM148.661 134.166C149.107 134.369 149.406 134.582 149.598 134.785L151.048 133.407C150.633 132.97 150.099 132.623 149.489 132.346L148.661 134.166ZM149.634 134.821C149.839 135.015 149.969 135.225 150.043 135.457L151.948 134.847C151.766 134.279 151.447 133.785 151.012 133.371L149.634 134.821ZM150.043 135.457C150.134 135.742 150.187 136.085 150.187 136.496H152.187C152.187 135.915 152.112 135.362 151.948 134.847L150.043 135.457ZM150.187 136.496C150.187 137.009 150.044 137.451 149.753 137.855L151.374 139.025C151.915 138.277 152.187 137.423 152.187 136.496H150.187ZM149.749 137.859C149.46 138.264 149.057 138.598 148.509 138.853L149.353 140.667C150.181 140.282 150.867 139.736 151.377 139.021L149.749 137.859ZM148.509 138.853C147.968 139.105 147.347 139.24 146.627 139.24V141.24C147.604 141.24 148.518 141.055 149.353 140.667L148.509 138.853ZM153.696 139.784L152.952 140.453L152.961 140.462L152.97 140.472L153.696 139.784ZM156.144 137.12L155.4 137.789L155.409 137.798L155.418 137.808L156.144 137.12ZM156.12 139.736L155.378 139.065L155.378 139.065L156.12 139.736ZM153.696 130.304L152.952 130.973L152.961 130.982L152.97 130.992L153.696 130.304ZM153.72 127.664L154.461 128.335L154.461 128.335L153.72 127.664ZM156.144 127.64L155.4 128.309L155.409 128.318L155.418 128.328L156.144 127.64ZM156.12 130.256L155.378 129.585L155.378 129.585L156.12 130.256ZM154.92 139.24C154.59 139.24 154.474 139.152 154.422 139.096L152.97 140.472C153.493 141.024 154.193 141.24 154.92 141.24V139.24ZM154.439 139.115C154.365 139.033 154.264 138.854 154.264 138.44H152.264C152.264 139.178 152.45 139.895 152.952 140.453L154.439 139.115ZM154.264 138.44C154.264 138.116 154.351 137.937 154.461 137.815L152.978 136.473C152.481 137.023 152.264 137.708 152.264 138.44H154.264ZM154.461 137.815C154.556 137.71 154.676 137.64 154.92 137.64V135.64C154.171 135.64 153.491 135.906 152.978 136.473L154.461 137.815ZM154.92 137.64C155.234 137.64 155.344 137.726 155.4 137.789L156.887 136.451C156.367 135.874 155.662 135.64 154.92 135.64V137.64ZM155.418 137.808C155.473 137.866 155.576 138.023 155.576 138.44H157.576C157.576 137.705 157.391 136.982 156.87 136.432L155.418 137.808ZM155.576 138.44C155.576 138.764 155.489 138.943 155.378 139.065L156.861 140.407C157.359 139.857 157.576 139.172 157.576 138.44H155.576ZM155.378 139.065C155.283 139.17 155.163 139.24 154.92 139.24V141.24C155.668 141.24 156.348 140.974 156.861 140.407L155.378 139.065ZM154.92 129.76C154.59 129.76 154.474 129.672 154.422 129.616L152.97 130.992C153.493 131.544 154.193 131.76 154.92 131.76V129.76ZM154.439 129.635C154.365 129.553 154.264 129.374 154.264 128.96H152.264C152.264 129.698 152.45 130.415 152.952 130.973L154.439 129.635ZM154.264 128.96C154.264 128.636 154.351 128.457 154.461 128.335L152.978 126.993C152.481 127.543 152.264 128.228 152.264 128.96H154.264ZM154.461 128.335C154.556 128.23 154.676 128.16 154.92 128.16V126.16C154.171 126.16 153.491 126.426 152.978 126.993L154.461 128.335ZM154.92 128.16C155.234 128.16 155.344 128.246 155.4 128.309L156.887 126.971C156.367 126.394 155.662 126.16 154.92 126.16V128.16ZM155.418 128.328C155.473 128.386 155.576 128.543 155.576 128.96H157.576C157.576 128.225 157.391 127.502 156.87 126.952L155.418 128.328ZM155.576 128.96C155.576 129.284 155.489 129.463 155.378 129.585L156.861 130.927C157.359 130.377 157.576 129.692 157.576 128.96H155.576ZM155.378 129.585C155.283 129.69 155.163 129.76 154.92 129.76V131.76C155.668 131.76 156.348 131.494 156.861 130.927L155.378 129.585Z" fill="#DAA520" fill-opacity="0.4"/>
</g>
</g>
<defs>
<filter id="filter0_d_14_63" x="12.4968" y="11.1804" width="225.006" height="214.879" filterUnits="userSpaceOnUse" color-interpolation-filters="sRGB">
<feFlood flood-opacity="0" result="BackgroundImageFix"/>
<feColorMatrix in="SourceAlpha" type="matrix" values="0 0 0 0 0 0 0 0 0 0 0 0 0 0 0 0 0 0 127 0" result="hardAlpha"/>
<feOffset dy="4"/>
<feGaussianBlur stdDeviation="2"/>
<feComposite in2="hardAlpha" operator="out"/>
<feColorMatrix type="matrix" values="0 0 0 0 0 0 0 0 0 0 0 0 0 0 0 0 0 0 0.25 0"/>
<feBlend mode="normal" in2="BackgroundImageFix" result="effect1_dropShadow_14_63"/>
<feBlend mode="normal" in="SourceGraphic" in2="effect1_dropShadow_14_63" result="shape"/>
</filter>
<filter id="filter1_dd_14_63" x="78.5554" y="77.2" width="94.0201" height="79.04" filterUnits="userSpaceOnUse" color-interpolation-filters="sRGB">
<feFlood flood-opacity="0" result="BackgroundImageFix"/>
<feColorMatrix in="SourceAlpha" type="matrix" values="0 0 0 0 0 0 0 0 0 0 0 0 0 0 0 0 0 0 127 0" result="hardAlpha"/>
<feOffset/>
<feGaussianBlur stdDeviation="8"/>
<feComposite in2="hardAlpha" operator="out"/>
<feColorMatrix type="matrix" values="0 0 0 0 0.994167 0 0 0 0 1 0 0 0 0 0.708333 0 0 0 1 0"/>
<feBlend mode="normal" in2="BackgroundImageFix" result="effect1_dropShadow_14_63"/>
<feColorMatrix in="SourceAlpha" type="matrix" values="0 0 0 0 0 0 0 0 0 0 0 0 0 0 0 0 0 0 127 0" result="hardAlpha"/>
<feOffset dy="4"/>
<feGaussianBlur stdDeviation="2"/>
<feComposite in2="hardAlpha" operator="out"/>
<feColorMatrix type="matrix" values="0 0 0 0 0 0 0 0 0 0 0 0 0 0 0 0 0 0 0.25 0"/>
<feBlend mode="normal" in2="effect1_dropShadow_14_63" result="effect2_dropShadow_14_63"/>
<feBlend mode="normal" in="SourceGraphic" in2="effect2_dropShadow_14_63" result="shape"/>
</filter>
</defs>
</svg>
