<svg width="250" height="282" viewBox="0 0 250 282" fill="none" xmlns="http://www.w3.org/2000/svg">
<g filter="url(#filter0_dd_14_69)">
<path d="M116.34 15C120.189 8.33334 129.811 8.33333 133.66 15L224.593 172.5C228.442 179.167 223.631 187.5 215.933 187.5H34.0673C26.3693 187.5 21.5581 179.167 25.4071 172.5L116.34 15Z" fill="#0000FF" fill-opacity="0.4" shape-rendering="crispEdges"/>
<path d="M132.361 15.75L223.294 173.25C226.566 178.917 222.476 186 215.933 186H34.0673C27.524 186 23.4345 178.917 26.7061 173.25L117.639 15.75C120.91 10.0833 129.09 10.0833 132.361 15.75Z" stroke="#2182F3" stroke-width="3" shape-rendering="crispEdges"/>
</g>
<g filter="url(#filter1_dd_14_69)">
<path d="M85.7425 110V107.9H88.1155V97.4H85.7425V95.3H92.7565V97.4H90.3835V107.9H92.7565V110H85.7425ZM95.4768 100.025L94.6788 99.059C95.2248 98.807 95.6728 98.52 96.0228 98.198C96.3728 97.876 96.5478 97.596 96.5478 97.358C96.5478 97.176 96.4708 97.015 96.3168 96.875C96.1628 96.721 96.0228 96.595 95.8968 96.497C95.5888 96.245 95.3788 96.035 95.2668 95.867C95.1688 95.699 95.1198 95.524 95.1198 95.342C95.1198 95.006 95.2388 94.74 95.4768 94.544C95.7148 94.334 96.0228 94.229 96.4008 94.229C96.7928 94.229 97.1428 94.334 97.4508 94.544C97.7728 94.74 98.0248 95.013 98.2068 95.363C98.3888 95.713 98.4798 96.126 98.4798 96.602C98.4798 96.966 98.4028 97.323 98.2488 97.673C98.0948 98.023 97.8778 98.352 97.5978 98.66C97.3318 98.968 97.0168 99.241 96.6528 99.479C96.2888 99.717 95.8968 99.899 95.4768 100.025ZM100.158 110V98.975H102.342V101.327L101.943 101.579C102.055 101.215 102.23 100.865 102.468 100.529C102.72 100.193 103.021 99.899 103.371 99.647C103.735 99.381 104.12 99.171 104.526 99.017C104.946 98.863 105.373 98.786 105.807 98.786C106.437 98.786 106.99 98.891 107.466 99.101C107.942 99.311 108.334 99.626 108.642 100.046C108.95 100.466 109.174 100.991 109.314 101.621L108.978 101.537L109.125 101.18C109.279 100.858 109.489 100.557 109.755 100.277C110.035 99.983 110.35 99.724 110.7 99.5C111.05 99.276 111.421 99.101 111.813 98.975C112.205 98.849 112.59 98.786 112.968 98.786C113.794 98.786 114.473 98.954 115.005 99.29C115.551 99.626 115.957 100.137 116.223 100.823C116.503 101.509 116.643 102.363 116.643 103.385V110H114.459V103.511C114.459 102.881 114.375 102.37 114.207 101.978C114.053 101.572 113.815 101.271 113.493 101.075C113.171 100.879 112.758 100.781 112.254 100.781C111.862 100.781 111.491 100.851 111.141 100.991C110.805 101.117 110.511 101.299 110.259 101.537C110.007 101.775 109.811 102.055 109.671 102.377C109.531 102.685 109.461 103.028 109.461 103.406V110H107.277V103.469C107.277 102.895 107.193 102.412 107.025 102.02C106.857 101.614 106.612 101.306 106.29 101.096C105.968 100.886 105.576 100.781 105.114 100.781C104.722 100.781 104.358 100.851 104.022 100.991C103.686 101.117 103.392 101.299 103.14 101.537C102.888 101.761 102.692 102.034 102.552 102.356C102.412 102.664 102.342 103 102.342 103.364V110H100.158ZM132.544 110.21C131.48 110.21 130.486 110.021 129.562 109.643C128.638 109.251 127.826 108.712 127.126 108.026C126.426 107.34 125.88 106.542 125.488 105.632C125.11 104.708 124.921 103.714 124.921 102.65C124.921 101.6 125.11 100.62 125.488 99.71C125.88 98.8 126.419 98.009 127.105 97.337C127.805 96.651 128.617 96.119 129.541 95.741C130.465 95.363 131.459 95.174 132.523 95.174C133.265 95.174 133.986 95.279 134.686 95.489C135.4 95.699 136.044 95.993 136.618 96.371C137.192 96.749 137.661 97.183 138.025 97.673L136.555 99.206C136.135 98.8 135.701 98.464 135.253 98.198C134.819 97.932 134.371 97.729 133.909 97.589C133.447 97.449 132.985 97.379 132.523 97.379C131.767 97.379 131.067 97.512 130.423 97.778C129.793 98.044 129.233 98.415 128.743 98.891C128.267 99.367 127.896 99.927 127.63 100.571C127.364 101.201 127.231 101.894 127.231 102.65C127.231 103.378 127.371 104.071 127.651 104.729C127.931 105.373 128.316 105.94 128.806 106.43C129.31 106.92 129.884 107.305 130.528 107.585C131.186 107.865 131.879 108.005 132.607 108.005C133.153 108.005 133.671 107.928 134.161 107.774C134.651 107.606 135.085 107.375 135.463 107.081C135.841 106.787 136.135 106.451 136.345 106.073C136.555 105.681 136.66 105.268 136.66 104.834V104.414L136.975 104.708H132.481V102.461H138.991C139.019 102.615 139.04 102.769 139.054 102.923C139.068 103.063 139.075 103.203 139.075 103.343C139.089 103.469 139.096 103.595 139.096 103.721C139.096 104.687 138.928 105.569 138.592 106.367C138.256 107.151 137.787 107.83 137.185 108.404C136.597 108.978 135.904 109.426 135.106 109.748C134.322 110.056 133.468 110.21 132.544 110.21ZM141.545 110V94.46H143.708V110H141.545ZM150.811 110.21C149.901 110.21 149.068 109.958 148.312 109.454C147.57 108.95 146.975 108.264 146.527 107.396C146.079 106.528 145.855 105.548 145.855 104.456C145.855 103.35 146.079 102.37 146.527 101.516C146.989 100.648 147.605 99.969 148.375 99.479C149.159 98.989 150.034 98.744 151 98.744C151.574 98.744 152.099 98.828 152.575 98.996C153.051 99.164 153.464 99.402 153.814 99.71C154.178 100.004 154.472 100.347 154.696 100.739C154.934 101.131 155.081 101.551 155.137 101.999L154.654 101.831V98.975H156.838V110H154.654V107.375L155.158 107.228C155.074 107.606 154.899 107.977 154.633 108.341C154.381 108.691 154.052 109.006 153.646 109.286C153.254 109.566 152.813 109.79 152.323 109.958C151.847 110.126 151.343 110.21 150.811 110.21ZM151.378 108.215C152.036 108.215 152.617 108.054 153.121 107.732C153.625 107.41 154.017 106.969 154.297 106.409C154.591 105.835 154.738 105.184 154.738 104.456C154.738 103.742 154.591 103.105 154.297 102.545C154.017 101.985 153.625 101.544 153.121 101.222C152.617 100.9 152.036 100.739 151.378 100.739C150.734 100.739 150.16 100.9 149.656 101.222C149.166 101.544 148.774 101.985 148.48 102.545C148.2 103.105 148.06 103.742 148.06 104.456C148.06 105.184 148.2 105.835 148.48 106.409C148.774 106.969 149.166 107.41 149.656 107.732C150.16 108.054 150.734 108.215 151.378 108.215ZM164.457 110.21C163.449 110.21 162.546 109.965 161.748 109.475C160.964 108.971 160.341 108.292 159.879 107.438C159.417 106.57 159.186 105.583 159.186 104.477C159.186 103.371 159.41 102.391 159.858 101.537C160.32 100.669 160.943 99.99 161.727 99.5C162.511 98.996 163.4 98.744 164.394 98.744C164.94 98.744 165.465 98.835 165.969 99.017C166.487 99.185 166.949 99.423 167.355 99.731C167.761 100.025 168.076 100.354 168.3 100.718C168.538 101.068 168.657 101.425 168.657 101.789L168.027 101.831V94.46H170.19V110H168.027V107.375H168.447C168.447 107.711 168.335 108.047 168.111 108.383C167.887 108.705 167.586 109.006 167.208 109.286C166.844 109.566 166.417 109.79 165.927 109.958C165.451 110.126 164.961 110.21 164.457 110.21ZM164.751 108.341C165.409 108.341 165.99 108.173 166.494 107.837C166.998 107.501 167.39 107.046 167.67 106.472C167.964 105.884 168.111 105.219 168.111 104.477C168.111 103.735 167.964 103.077 167.67 102.503C167.39 101.915 166.998 101.453 166.494 101.117C165.99 100.781 165.409 100.613 164.751 100.613C164.093 100.613 163.512 100.781 163.008 101.117C162.504 101.453 162.105 101.915 161.811 102.503C161.531 103.077 161.391 103.735 161.391 104.477C161.391 105.219 161.531 105.884 161.811 106.472C162.105 107.046 162.504 107.501 163.008 107.837C163.512 108.173 164.093 108.341 164.751 108.341ZM99.7316 136V128.671L99.8786 129.7L93.9356 121.3H96.6656L101.202 127.81L100.677 127.747L104.772 121.3H107.376L101.685 129.931L102 128.503V136H99.7316ZM112.375 136.21C111.297 136.21 110.331 135.965 109.477 135.475C108.637 134.971 107.972 134.292 107.482 133.438C106.992 132.57 106.747 131.583 106.747 130.477C106.747 129.371 106.992 128.391 107.482 127.537C107.972 126.669 108.637 125.99 109.477 125.5C110.331 124.996 111.297 124.744 112.375 124.744C113.439 124.744 114.391 124.996 115.231 125.5C116.085 125.99 116.757 126.669 117.247 127.537C117.737 128.391 117.982 129.371 117.982 130.477C117.982 131.583 117.737 132.57 117.247 133.438C116.757 134.292 116.085 134.971 115.231 135.475C114.391 135.965 113.439 136.21 112.375 136.21ZM112.375 134.236C113.033 134.236 113.621 134.075 114.139 133.753C114.657 133.417 115.063 132.969 115.357 132.409C115.651 131.835 115.791 131.191 115.777 130.477C115.791 129.749 115.651 129.105 115.357 128.545C115.063 127.971 114.657 127.523 114.139 127.201C113.621 126.879 113.033 126.718 112.375 126.718C111.717 126.718 111.122 126.886 110.59 127.222C110.072 127.544 109.666 127.992 109.372 128.566C109.078 129.126 108.938 129.763 108.952 130.477C108.938 131.191 109.078 131.835 109.372 132.409C109.666 132.969 110.072 133.417 110.59 133.753C111.122 134.075 111.717 134.236 112.375 134.236ZM124.203 136.21C123.419 136.21 122.733 136.028 122.145 135.664C121.571 135.3 121.123 134.789 120.801 134.131C120.493 133.473 120.339 132.689 120.339 131.779V124.975H122.502V131.191C122.502 131.835 122.6 132.395 122.796 132.871C123.006 133.333 123.3 133.69 123.678 133.942C124.07 134.194 124.539 134.32 125.085 134.32C125.491 134.32 125.862 134.257 126.198 134.131C126.534 133.991 126.821 133.802 127.059 133.564C127.311 133.326 127.507 133.039 127.647 132.703C127.787 132.367 127.857 132.003 127.857 131.611V124.975H130.02V136H127.857V133.69L128.235 133.438C128.067 133.956 127.78 134.425 127.374 134.845C126.982 135.265 126.513 135.601 125.967 135.853C125.421 136.091 124.833 136.21 124.203 136.21ZM132.76 126.025L131.962 125.059C132.508 124.807 132.956 124.52 133.306 124.198C133.656 123.876 133.831 123.596 133.831 123.358C133.831 123.176 133.754 123.015 133.6 122.875C133.446 122.721 133.306 122.595 133.18 122.497C132.872 122.245 132.662 122.035 132.55 121.867C132.452 121.699 132.403 121.524 132.403 121.342C132.403 121.006 132.522 120.74 132.76 120.544C132.998 120.334 133.306 120.229 133.684 120.229C134.076 120.229 134.426 120.334 134.734 120.544C135.056 120.74 135.308 121.013 135.49 121.363C135.672 121.713 135.763 122.126 135.763 122.602C135.763 122.966 135.686 123.323 135.532 123.673C135.378 124.023 135.161 124.352 134.881 124.66C134.615 124.968 134.3 125.241 133.936 125.479C133.572 125.717 133.18 125.899 132.76 126.025ZM137.484 136V124.975H139.668V128.44L139.458 127.6C139.612 127.068 139.871 126.585 140.235 126.151C140.613 125.717 141.04 125.374 141.516 125.122C142.006 124.87 142.51 124.744 143.028 124.744C143.266 124.744 143.49 124.765 143.7 124.807C143.924 124.849 144.099 124.898 144.225 124.954L143.658 127.306C143.49 127.236 143.301 127.18 143.091 127.138C142.895 127.082 142.699 127.054 142.503 127.054C142.125 127.054 141.761 127.131 141.411 127.285C141.075 127.425 140.774 127.628 140.508 127.894C140.256 128.146 140.053 128.447 139.899 128.797C139.745 129.133 139.668 129.504 139.668 129.91V136H137.484ZM150.627 136.21C149.493 136.21 148.485 135.972 147.603 135.496C146.735 135.006 146.049 134.341 145.545 133.501C145.055 132.661 144.81 131.695 144.81 130.603C144.81 129.735 144.95 128.944 145.23 128.23C145.51 127.516 145.895 126.9 146.385 126.382C146.889 125.85 147.484 125.444 148.17 125.164C148.87 124.87 149.626 124.723 150.438 124.723C151.152 124.723 151.817 124.863 152.433 125.143C153.049 125.409 153.581 125.78 154.029 126.256C154.491 126.732 154.841 127.299 155.079 127.957C155.331 128.601 155.45 129.308 155.436 130.078L155.415 131.002H146.406L145.923 129.28H153.546L153.231 129.637V129.133C153.189 128.671 153.035 128.258 152.769 127.894C152.503 127.53 152.167 127.243 151.761 127.033C151.355 126.823 150.914 126.718 150.438 126.718C149.682 126.718 149.045 126.865 148.527 127.159C148.009 127.439 147.617 127.859 147.351 128.419C147.085 128.965 146.952 129.644 146.952 130.456C146.952 131.226 147.113 131.898 147.435 132.472C147.757 133.032 148.212 133.466 148.8 133.774C149.388 134.082 150.067 134.236 150.837 134.236C151.383 134.236 151.887 134.145 152.349 133.963C152.825 133.781 153.336 133.452 153.882 132.976L154.974 134.509C154.638 134.845 154.225 135.139 153.735 135.391C153.259 135.643 152.748 135.846 152.202 136C151.67 136.14 151.145 136.21 150.627 136.21ZM106.129 162V147.3H108.397V162H106.129ZM96.5321 162V147.3H98.8001V162H96.5321ZM97.5191 155.763V153.579H107.137V155.763H97.5191ZM117.107 162.21C115.973 162.21 114.965 161.972 114.083 161.496C113.215 161.006 112.529 160.341 112.025 159.501C111.535 158.661 111.29 157.695 111.29 156.603C111.29 155.735 111.43 154.944 111.71 154.23C111.99 153.516 112.375 152.9 112.865 152.382C113.369 151.85 113.964 151.444 114.65 151.164C115.35 150.87 116.106 150.723 116.918 150.723C117.632 150.723 118.297 150.863 118.913 151.143C119.529 151.409 120.061 151.78 120.509 152.256C120.971 152.732 121.321 153.299 121.559 153.957C121.811 154.601 121.93 155.308 121.916 156.078L121.895 157.002H112.886L112.403 155.28H120.026L119.711 155.637V155.133C119.669 154.671 119.515 154.258 119.249 153.894C118.983 153.53 118.647 153.243 118.241 153.033C117.835 152.823 117.394 152.718 116.918 152.718C116.162 152.718 115.525 152.865 115.007 153.159C114.489 153.439 114.097 153.859 113.831 154.419C113.565 154.965 113.432 155.644 113.432 156.456C113.432 157.226 113.593 157.898 113.915 158.472C114.237 159.032 114.692 159.466 115.28 159.774C115.868 160.082 116.547 160.236 117.317 160.236C117.863 160.236 118.367 160.145 118.829 159.963C119.305 159.781 119.816 159.452 120.362 158.976L121.454 160.509C121.118 160.845 120.705 161.139 120.215 161.391C119.739 161.643 119.228 161.846 118.682 162C118.15 162.14 117.625 162.21 117.107 162.21ZM124.266 162V150.975H126.45V154.44L126.24 153.6C126.394 153.068 126.653 152.585 127.017 152.151C127.395 151.717 127.822 151.374 128.298 151.122C128.788 150.87 129.292 150.744 129.81 150.744C130.048 150.744 130.272 150.765 130.482 150.807C130.706 150.849 130.881 150.898 131.007 150.954L130.44 153.306C130.272 153.236 130.083 153.18 129.873 153.138C129.677 153.082 129.481 153.054 129.285 153.054C128.907 153.054 128.543 153.131 128.193 153.285C127.857 153.425 127.556 153.628 127.29 153.894C127.038 154.146 126.835 154.447 126.681 154.797C126.527 155.133 126.45 155.504 126.45 155.91V162H124.266ZM137.409 162.21C136.275 162.21 135.267 161.972 134.385 161.496C133.517 161.006 132.831 160.341 132.327 159.501C131.837 158.661 131.592 157.695 131.592 156.603C131.592 155.735 131.732 154.944 132.012 154.23C132.292 153.516 132.677 152.9 133.167 152.382C133.671 151.85 134.266 151.444 134.952 151.164C135.652 150.87 136.408 150.723 137.22 150.723C137.934 150.723 138.599 150.863 139.215 151.143C139.831 151.409 140.363 151.78 140.811 152.256C141.273 152.732 141.623 153.299 141.861 153.957C142.113 154.601 142.232 155.308 142.218 156.078L142.197 157.002H133.188L132.705 155.28H140.328L140.013 155.637V155.133C139.971 154.671 139.817 154.258 139.551 153.894C139.285 153.53 138.949 153.243 138.543 153.033C138.137 152.823 137.696 152.718 137.22 152.718C136.464 152.718 135.827 152.865 135.309 153.159C134.791 153.439 134.399 153.859 134.133 154.419C133.867 154.965 133.734 155.644 133.734 156.456C133.734 157.226 133.895 157.898 134.217 158.472C134.539 159.032 134.994 159.466 135.582 159.774C136.17 160.082 136.849 160.236 137.619 160.236C138.165 160.236 138.669 160.145 139.131 159.963C139.607 159.781 140.118 159.452 140.664 158.976L141.756 160.509C141.42 160.845 141.007 161.139 140.517 161.391C140.041 161.643 139.53 161.846 138.984 162C138.452 162.14 137.927 162.21 137.409 162.21ZM151.337 162.21C150.875 162.21 150.518 162.077 150.266 161.811C150.014 161.531 149.888 161.139 149.888 160.635C149.888 160.173 150.021 159.795 150.287 159.501C150.553 159.207 150.903 159.06 151.337 159.06C151.799 159.06 152.156 159.2 152.408 159.48C152.66 159.746 152.786 160.131 152.786 160.635C152.786 161.097 152.653 161.475 152.387 161.769C152.121 162.063 151.771 162.21 151.337 162.21ZM151.337 153.915C150.875 153.915 150.518 153.782 150.266 153.516C150.014 153.236 149.888 152.844 149.888 152.34C149.888 151.878 150.021 151.5 150.287 151.206C150.553 150.912 150.903 150.765 151.337 150.765C151.799 150.765 152.156 150.905 152.408 151.185C152.66 151.451 152.786 151.836 152.786 152.34C152.786 152.802 152.653 153.18 152.387 153.474C152.121 153.768 151.771 153.915 151.337 153.915ZM155.296 165.906L154.141 164.604C155.569 163.61 156.654 162.427 157.396 161.055C158.152 159.669 158.53 158.178 158.53 156.582C158.53 154.986 158.152 153.502 157.396 152.13C156.654 150.744 155.569 149.554 154.141 148.56L155.317 147.258C157.025 148.322 158.327 149.652 159.223 151.248C160.119 152.844 160.567 154.622 160.567 156.582C160.567 158.528 160.112 160.306 159.202 161.916C158.306 163.512 157.004 164.842 155.296 165.906Z" fill="white" shape-rendering="crispEdges"/>
<path d="M85.7425 110H84.7425V111H85.7425V110ZM85.7425 107.9V106.9H84.7425V107.9H85.7425ZM88.1155 107.9V108.9H89.1155V107.9H88.1155ZM88.1155 97.4H89.1155V96.4H88.1155V97.4ZM85.7425 97.4H84.7425V98.4H85.7425V97.4ZM85.7425 95.3V94.3H84.7425V95.3H85.7425ZM92.7565 95.3H93.7565V94.3H92.7565V95.3ZM92.7565 97.4V98.4H93.7565V97.4H92.7565ZM90.3835 97.4V96.4H89.3835V97.4H90.3835ZM90.3835 107.9H89.3835V108.9H90.3835V107.9ZM92.7565 107.9H93.7565V106.9H92.7565V107.9ZM92.7565 110V111H93.7565V110H92.7565ZM86.7425 110V107.9H84.7425V110H86.7425ZM85.7425 108.9H88.1155V106.9H85.7425V108.9ZM89.1155 107.9V97.4H87.1155V107.9H89.1155ZM88.1155 96.4H85.7425V98.4H88.1155V96.4ZM86.7425 97.4V95.3H84.7425V97.4H86.7425ZM85.7425 96.3H92.7565V94.3H85.7425V96.3ZM91.7565 95.3V97.4H93.7565V95.3H91.7565ZM92.7565 96.4H90.3835V98.4H92.7565V96.4ZM89.3835 97.4V107.9H91.3835V97.4H89.3835ZM90.3835 108.9H92.7565V106.9H90.3835V108.9ZM91.7565 107.9V110H93.7565V107.9H91.7565ZM92.7565 109H85.7425V111H92.7565V109ZM95.4768 100.025L94.7058 100.662L95.1285 101.174L95.7641 100.983L95.4768 100.025ZM94.6788 99.059L94.2597 98.151L93.0811 98.695L93.9078 99.6959L94.6788 99.059ZM96.0228 98.198L96.6998 98.9339L96.6998 98.9339L96.0228 98.198ZM96.3168 96.875L95.6097 97.5821L95.6265 97.5989L95.6441 97.6149L96.3168 96.875ZM95.8968 96.497L95.2636 97.271L95.2731 97.2788L95.2829 97.2864L95.8968 96.497ZM95.2668 95.867L94.403 96.3709L94.4181 96.3968L94.4347 96.4217L95.2668 95.867ZM95.4768 94.544L96.1125 95.3159L96.1256 95.3051L96.1384 95.2938L95.4768 94.544ZM97.4508 94.544L96.8875 95.3702L96.9088 95.3848L96.9308 95.3982L97.4508 94.544ZM98.2068 95.363L97.3196 95.8244L97.3196 95.8244L98.2068 95.363ZM98.2488 97.673L99.1641 98.0757L99.1641 98.0757L98.2488 97.673ZM97.5978 98.66L96.8578 97.9873L96.8493 97.9967L96.841 98.0064L97.5978 98.66ZM96.6528 99.479L96.1055 98.642L96.1055 98.642L96.6528 99.479ZM96.2478 99.3881L95.4498 98.4221L93.9078 99.6959L94.7058 100.662L96.2478 99.3881ZM95.0978 99.967C95.7145 99.6823 96.2562 99.3421 96.6998 98.9339L95.3457 97.4621C95.0894 97.6979 94.7351 97.9317 94.2597 98.151L95.0978 99.967ZM96.6998 98.9339C97.0751 98.5887 97.5478 98.0513 97.5478 97.358H95.5478C95.5478 97.2303 95.5937 97.1763 95.5685 97.2165C95.5443 97.2552 95.4811 97.3376 95.3457 97.4621L96.6998 98.9339ZM97.5478 97.358C97.5478 96.8525 97.3189 96.4346 96.9895 96.1351L95.6441 97.6149C95.6411 97.6122 95.6137 97.5861 95.5879 97.5322C95.5607 97.4753 95.5478 97.4133 95.5478 97.358H97.5478ZM97.0239 96.1679C96.8503 95.9943 96.6788 95.8384 96.5107 95.7076L95.2829 97.2864C95.3668 97.3516 95.4752 97.4477 95.6097 97.5821L97.0239 96.1679ZM96.53 95.723C96.2395 95.4854 96.1252 95.3519 96.0988 95.3123L94.4347 96.4217C94.6323 96.7181 94.9381 97.0046 95.2636 97.271L96.53 95.723ZM96.1306 95.3631C96.1259 95.3551 96.1232 95.3493 96.1216 95.3458C96.1201 95.3422 96.1196 95.3404 96.1195 95.3401C96.1194 95.3399 96.1196 95.3403 96.1197 95.3412C96.1198 95.3421 96.1198 95.3425 96.1198 95.342H94.1198C94.1198 95.7132 94.2221 96.0608 94.403 96.3709L96.1306 95.3631ZM96.1198 95.342C96.1198 95.317 96.122 95.3027 96.1231 95.297C96.1242 95.2917 96.1244 95.2931 96.1219 95.2989C96.1192 95.3048 96.1156 95.3108 96.1119 95.3156C96.1083 95.3202 96.1075 95.3201 96.1125 95.3159L94.8411 93.7721C94.3498 94.1766 94.1198 94.7377 94.1198 95.342H96.1198ZM96.1384 95.2938C96.16 95.2747 96.2175 95.229 96.4008 95.229V93.229C95.8281 93.229 95.2695 93.3933 94.8152 93.7942L96.1384 95.2938ZM96.4008 95.229C96.6028 95.229 96.7543 95.2795 96.8875 95.3702L98.0141 93.7178C97.5312 93.3885 96.9828 93.229 96.4008 93.229V95.229ZM96.9308 95.3982C97.0894 95.4947 97.2177 95.6285 97.3196 95.8244L99.094 94.9016C98.8318 94.3975 98.4562 93.9853 97.9707 93.6898L96.9308 95.3982ZM97.3196 95.8244C97.4137 96.0053 97.4798 96.2537 97.4798 96.602H99.4798C99.4798 95.9983 99.3639 95.4207 99.094 94.9016L97.3196 95.8244ZM97.4798 96.602C97.4798 96.8204 97.4345 97.0406 97.3335 97.2703L99.1641 98.0757C99.3711 97.6054 99.4798 97.1116 99.4798 96.602H97.4798ZM97.3335 97.2703C97.2267 97.513 97.0716 97.7522 96.8578 97.9873L98.3377 99.3327C98.684 98.9518 98.9629 98.533 99.1641 98.0757L97.3335 97.2703ZM96.841 98.0064C96.64 98.2391 96.3968 98.4516 96.1055 98.642L97.2 100.316C97.6368 100.03 98.0236 99.6969 98.3546 99.3136L96.841 98.0064ZM96.1055 98.642C95.8226 98.827 95.5182 98.9685 95.1894 99.0672L95.7641 100.983C96.2754 100.829 96.755 100.607 97.2 100.316L96.1055 98.642ZM100.158 110H99.1585V111H100.158V110ZM100.158 98.975V97.975H99.1585V98.975H100.158ZM102.342 98.975H103.342V97.975H102.342V98.975ZM102.342 101.327L102.876 102.172L103.342 101.878V101.327H102.342ZM101.943 101.579L100.988 101.285L100.193 103.867L102.477 102.424L101.943 101.579ZM102.468 100.529L101.668 99.929L101.66 99.9399L101.652 99.951L102.468 100.529ZM103.371 99.647L103.956 100.459L103.961 100.454L103.371 99.647ZM104.526 99.017L104.182 98.0781L104.172 98.082L104.526 99.017ZM107.466 99.101L107.87 98.1861L107.87 98.1861L107.466 99.101ZM108.642 100.046L109.449 99.4546L109.449 99.4546L108.642 100.046ZM109.314 101.621L109.072 102.591L110.642 102.984L110.291 101.404L109.314 101.621ZM108.978 101.537L108.054 101.156L107.613 102.226L108.736 102.507L108.978 101.537ZM109.125 101.18L108.223 100.749L108.211 100.774L108.201 100.799L109.125 101.18ZM109.755 100.277L109.031 99.5873L109.03 99.5883L109.755 100.277ZM110.7 99.5L111.24 100.342L111.24 100.342L110.7 99.5ZM111.813 98.975L111.507 98.023L111.507 98.023L111.813 98.975ZM115.005 99.29L114.471 100.136L114.481 100.142L115.005 99.29ZM116.223 100.823L115.291 101.185L115.294 101.193L115.298 101.201L116.223 100.823ZM116.643 110V111H117.643V110H116.643ZM114.459 110H113.459V111H114.459V110ZM114.207 101.978L113.272 102.333L113.28 102.352L113.288 102.372L114.207 101.978ZM111.141 100.991L111.493 101.927L111.503 101.924L111.513 101.919L111.141 100.991ZM110.259 101.537L109.573 100.81L109.573 100.81L110.259 101.537ZM109.671 102.377L110.582 102.791L110.585 102.783L110.589 102.776L109.671 102.377ZM109.461 110V111H110.461V110H109.461ZM107.277 110H106.277V111H107.277V110ZM107.025 102.02L106.101 102.402L106.106 102.414L107.025 102.02ZM106.29 101.096L106.837 100.258L106.837 100.258L106.29 101.096ZM104.022 100.991L104.374 101.927L104.39 101.921L104.407 101.914L104.022 100.991ZM103.14 101.537L103.805 102.284L103.816 102.274L103.827 102.264L103.14 101.537ZM102.552 102.356L103.463 102.77L103.466 102.762L103.47 102.755L102.552 102.356ZM102.342 110V111H103.342V110H102.342ZM101.158 110V98.975H99.1585V110H101.158ZM100.158 99.975H102.342V97.975H100.158V99.975ZM101.342 98.975V101.327H103.342V98.975H101.342ZM101.808 100.482L101.409 100.734L102.477 102.424L102.876 102.172L101.808 100.482ZM102.899 101.873C102.978 101.618 103.103 101.363 103.285 101.107L101.652 99.951C101.358 100.367 101.133 100.812 100.988 101.285L102.899 101.873ZM103.268 101.129C103.458 100.876 103.686 100.653 103.956 100.459L102.787 98.8355C102.357 99.145 101.983 99.5098 101.668 99.929L103.268 101.129ZM103.961 100.454C104.256 100.239 104.562 100.073 104.881 99.952L104.172 98.082C103.679 98.269 103.215 98.5227 102.781 98.8396L103.961 100.454ZM104.871 99.9559C105.184 99.841 105.495 99.786 105.807 99.786V97.786C105.252 97.786 104.709 97.885 104.182 98.0781L104.871 99.9559ZM105.807 99.786C106.327 99.786 106.738 99.8726 107.063 100.016L107.87 98.1861C107.243 97.9094 106.548 97.786 105.807 97.786V99.786ZM107.063 100.016C107.378 100.155 107.632 100.358 107.836 100.637L109.449 99.4546C109.037 98.8935 108.507 98.4669 107.87 98.1861L107.063 100.016ZM107.836 100.637C108.045 100.922 108.221 101.312 108.338 101.838L110.291 101.404C110.128 100.67 109.856 100.01 109.449 99.4546L107.836 100.637ZM109.557 100.651L109.221 100.567L108.736 102.507L109.072 102.591L109.557 100.651ZM109.903 101.918L110.05 101.561L108.201 100.799L108.054 101.156L109.903 101.918ZM110.028 101.611C110.133 101.391 110.281 101.176 110.48 100.966L109.03 99.5883C108.698 99.938 108.426 100.325 108.223 100.749L110.028 101.611ZM110.48 100.967C110.703 100.732 110.956 100.524 111.24 100.342L110.161 98.6577C109.745 98.924 109.368 99.2339 109.031 99.5873L110.48 100.967ZM111.24 100.342C111.518 100.164 111.81 100.026 112.119 99.927L111.507 98.023C111.033 98.1756 110.583 98.3877 110.161 98.6577L111.24 100.342ZM112.119 99.927C112.421 99.83 112.703 99.786 112.968 99.786V97.786C112.478 97.786 111.99 97.868 111.507 98.023L112.119 99.927ZM112.968 99.786C113.663 99.786 114.142 99.9274 114.471 100.135L115.539 98.4445C114.805 97.9806 113.926 97.786 112.968 97.786V99.786ZM114.481 100.142C114.815 100.347 115.092 100.671 115.291 101.185L117.156 100.461C116.823 99.6033 116.288 98.9052 115.53 98.4383L114.481 100.142ZM115.298 101.201C115.514 101.731 115.643 102.447 115.643 103.385H117.643C117.643 102.279 117.493 101.287 117.149 100.445L115.298 101.201ZM115.643 103.385V110H117.643V103.385H115.643ZM116.643 109H114.459V111H116.643V109ZM115.459 110V103.511H113.459V110H115.459ZM115.459 103.511C115.459 102.805 115.367 102.145 115.127 101.584L113.288 102.372C113.384 102.595 113.459 102.957 113.459 103.511H115.459ZM115.142 101.623C114.922 101.042 114.554 100.55 114.013 100.221L112.974 101.929C113.077 101.992 113.185 102.102 113.272 102.333L115.142 101.623ZM114.013 100.221C113.49 99.9024 112.882 99.781 112.254 99.781V101.781C112.635 101.781 112.853 101.856 112.974 101.929L114.013 100.221ZM112.254 99.781C111.74 99.781 111.243 99.8734 110.77 100.063L111.513 101.919C111.74 101.829 111.985 101.781 112.254 101.781V99.781ZM110.79 100.055C110.334 100.226 109.925 100.477 109.573 100.81L110.946 102.264C111.098 102.121 111.277 102.008 111.493 101.927L110.79 100.055ZM109.573 100.81C109.221 101.142 108.948 101.534 108.754 101.978L110.589 102.776C110.675 102.576 110.794 102.408 110.946 102.264L109.573 100.81ZM108.761 101.963C108.555 102.416 108.461 102.902 108.461 103.406H110.461C110.461 103.154 110.507 102.954 110.582 102.791L108.761 101.963ZM108.461 103.406V110H110.461V103.406H108.461ZM109.461 109H107.277V111H109.461V109ZM108.277 110V103.469H106.277V110H108.277ZM108.277 103.469C108.277 102.804 108.181 102.178 107.945 101.626L106.106 102.414C106.206 102.646 106.277 102.986 106.277 103.469H108.277ZM107.949 101.638C107.716 101.073 107.351 100.594 106.837 100.258L105.744 101.934C105.874 102.018 105.999 102.155 106.101 102.402L107.949 101.638ZM106.837 100.258C106.322 99.9227 105.731 99.781 105.114 99.781V101.781C105.422 101.781 105.615 101.849 105.744 101.934L106.837 100.258ZM105.114 99.781C104.601 99.781 104.105 99.8733 103.638 100.068L104.407 101.914C104.612 101.829 104.844 101.781 105.114 101.781V99.781ZM103.671 100.055C103.215 100.226 102.806 100.477 102.454 100.81L103.827 102.264C103.979 102.121 104.158 102.008 104.374 101.927L103.671 100.055ZM102.476 100.79C102.111 101.114 101.831 101.508 101.635 101.957L103.47 102.755C103.554 102.56 103.666 102.408 103.805 102.284L102.476 100.79ZM101.642 101.942C101.439 102.39 101.342 102.868 101.342 103.364H103.342C103.342 103.132 103.386 102.938 103.463 102.77L101.642 101.942ZM101.342 103.364V110H103.342V103.364H101.342ZM102.342 109H100.158V111H102.342V109ZM129.562 109.643L129.172 110.564L129.183 110.569L129.562 109.643ZM127.126 108.026L127.826 107.312L127.826 107.312L127.126 108.026ZM125.488 105.632L124.563 106.011L124.566 106.019L124.57 106.028L125.488 105.632ZM125.488 99.71L124.57 99.3143L124.565 99.3264L125.488 99.71ZM127.105 97.337L127.805 98.0514L127.805 98.0512L127.105 97.337ZM129.541 95.741L129.162 94.8155L129.162 94.8155L129.541 95.741ZM134.686 95.489L134.399 96.4468L134.404 96.4484L134.686 95.489ZM138.025 97.673L138.747 98.3651L139.332 97.7551L138.828 97.0767L138.025 97.673ZM136.555 99.206L135.86 99.925L136.582 100.623L137.277 99.8981L136.555 99.206ZM135.253 98.198L134.73 99.0507L134.743 99.0579L135.253 98.198ZM130.423 97.778L130.041 96.8537L130.034 96.8568L130.423 97.778ZM128.743 98.891L128.046 98.1737L128.041 98.1788L128.036 98.1839L128.743 98.891ZM127.63 100.571L128.551 100.96L128.554 100.953L127.63 100.571ZM127.651 104.729L126.731 105.121L126.734 105.128L127.651 104.729ZM128.806 106.43L128.099 107.137L128.109 107.147L128.806 106.43ZM130.528 107.585L130.129 108.502L130.137 108.505L130.528 107.585ZM134.161 107.774L134.461 108.728L134.473 108.724L134.485 108.72L134.161 107.774ZM135.463 107.081L134.849 106.292L134.849 106.292L135.463 107.081ZM136.345 106.073L137.219 106.559L137.223 106.552L137.227 106.545L136.345 106.073ZM136.66 104.414L137.342 103.683L135.66 102.113V104.414H136.66ZM136.975 104.708V105.708H139.512L137.657 103.977L136.975 104.708ZM132.481 104.708H131.481V105.708H132.481V104.708ZM132.481 102.461V101.461H131.481V102.461H132.481ZM138.991 102.461L139.975 102.282L139.826 101.461H138.991V102.461ZM139.054 102.923L138.058 103.014L138.059 103.023L139.054 102.923ZM139.075 103.343H138.075V103.398L138.081 103.453L139.075 103.343ZM138.592 106.367L139.511 106.761L139.514 106.755L138.592 106.367ZM137.185 108.404L136.495 107.68L136.487 107.688L137.185 108.404ZM135.106 109.748L135.472 110.679L135.48 110.675L135.106 109.748ZM132.544 109.21C131.601 109.21 130.737 109.043 129.941 108.717L129.183 110.569C130.235 110.999 131.359 111.21 132.544 111.21V109.21ZM129.953 108.722C129.141 108.378 128.435 107.908 127.826 107.312L126.426 108.74C127.218 109.516 128.135 110.124 129.172 110.564L129.953 108.722ZM127.826 107.312C127.22 106.718 126.748 106.028 126.406 105.236L124.57 106.028C125.013 107.056 125.632 107.962 126.426 108.74L127.826 107.312ZM126.414 105.253C126.088 104.457 125.921 103.593 125.921 102.65H123.921C123.921 103.835 124.132 104.959 124.563 106.011L126.414 105.253ZM125.921 102.65C125.921 101.723 126.087 100.874 126.412 100.094L124.565 99.3264C124.133 100.366 123.921 101.477 123.921 102.65H125.921ZM126.406 100.106C126.749 99.3112 127.215 98.6294 127.805 98.0514L126.405 96.6226C125.623 97.3886 125.011 98.2888 124.57 99.3144L126.406 100.106ZM127.805 98.0512C128.411 97.4575 129.113 96.9965 129.92 96.6665L129.162 94.8155C128.121 95.2415 127.199 95.8445 126.405 96.6228L127.805 98.0512ZM129.92 96.6665C130.716 96.3409 131.58 96.174 132.523 96.174V94.174C131.338 94.174 130.214 94.3851 129.162 94.8155L129.92 96.6665ZM132.523 96.174C133.169 96.174 133.793 96.2652 134.399 96.4468L134.973 94.5312C134.179 94.2928 133.361 94.174 132.523 94.174V96.174ZM134.404 96.4484C135.031 96.6327 135.583 96.8869 136.068 97.2062L137.168 95.5358C136.505 95.0991 135.769 94.7652 134.968 94.5296L134.404 96.4484ZM136.068 97.2062C136.557 97.5279 136.936 97.8841 137.222 98.2693L138.828 97.0767C138.386 96.4819 137.827 95.9701 137.168 95.5358L136.068 97.2062ZM137.303 96.9809L135.833 98.5139L137.277 99.8981L138.747 98.3651L137.303 96.9809ZM137.25 98.487C136.781 98.0335 136.286 97.6482 135.764 97.3381L134.743 99.0579C135.116 99.2798 135.489 99.5665 135.86 99.925L137.25 98.487ZM135.776 97.3454C135.273 97.0372 134.747 96.798 134.199 96.632L133.619 98.546C133.995 98.66 134.365 98.8268 134.731 99.0506L135.776 97.3454ZM134.199 96.632C133.647 96.4648 133.088 96.379 132.523 96.379V98.379C132.882 98.379 133.247 98.4332 133.619 98.546L134.199 96.632ZM132.523 96.379C131.647 96.379 130.816 96.5336 130.041 96.8537L130.805 98.7023C131.318 98.4904 131.887 98.379 132.523 98.379V96.379ZM130.034 96.8568C129.29 97.171 128.625 97.6111 128.046 98.1737L129.44 99.6083C129.841 99.2189 130.296 98.917 130.812 98.6992L130.034 96.8568ZM128.036 98.1839C127.464 98.7563 127.02 99.4279 126.706 100.189L128.554 100.953C128.772 100.426 129.071 99.9777 129.45 99.5981L128.036 98.1839ZM126.709 100.182C126.386 100.948 126.231 101.775 126.231 102.65H128.231C128.231 102.013 128.343 101.454 128.551 100.96L126.709 100.182ZM126.231 102.65C126.231 103.51 126.397 104.336 126.731 105.121L128.571 104.337C128.345 103.806 128.231 103.246 128.231 102.65H126.231ZM126.734 105.128C127.063 105.885 127.519 106.557 128.099 107.137L129.513 105.723C129.113 105.323 128.799 104.861 128.568 104.33L126.734 105.128ZM128.109 107.147C128.699 107.721 129.375 108.174 130.129 108.502L130.927 106.668C130.394 106.436 129.921 106.119 129.503 105.713L128.109 107.147ZM130.137 108.505C130.921 108.839 131.747 109.005 132.607 109.005V107.005C132.011 107.005 131.452 106.891 130.92 106.665L130.137 108.505ZM132.607 109.005C133.248 109.005 133.868 108.914 134.461 108.728L133.861 106.82C133.474 106.942 133.058 107.005 132.607 107.005V109.005ZM134.485 108.72C135.071 108.519 135.605 108.238 136.077 107.87L134.849 106.292C134.565 106.512 134.231 106.693 133.837 106.828L134.485 108.72ZM136.077 107.87C136.55 107.503 136.937 107.066 137.219 106.559L135.471 105.587C135.333 105.836 135.132 106.071 134.849 106.292L136.077 107.87ZM137.227 106.545C137.512 106.012 137.66 105.437 137.66 104.834H135.66C135.66 105.099 135.598 105.35 135.464 105.601L137.227 106.545ZM137.66 104.834V104.414H135.66V104.834H137.66ZM135.978 105.145L136.293 105.439L137.657 103.977L137.342 103.683L135.978 105.145ZM136.975 103.708H132.481V105.708H136.975V103.708ZM133.481 104.708V102.461H131.481V104.708H133.481ZM132.481 103.461H138.991V101.461H132.481V103.461ZM138.007 102.64C138.03 102.765 138.047 102.89 138.058 103.014L140.05 102.832C140.033 102.648 140.008 102.465 139.975 102.282L138.007 102.64ZM138.059 103.023C138.07 103.13 138.075 103.236 138.075 103.343H140.075C140.075 103.17 140.066 102.996 140.049 102.823L138.059 103.023ZM138.081 103.453C138.091 103.543 138.096 103.632 138.096 103.721H140.096C140.096 103.558 140.087 103.395 140.069 103.233L138.081 103.453ZM138.096 103.721C138.096 104.569 137.949 105.317 137.67 105.979L139.514 106.755C139.907 105.821 140.096 104.805 140.096 103.721H138.096ZM137.673 105.973C137.389 106.636 136.997 107.202 136.495 107.68L137.875 109.128C138.578 108.458 139.123 107.666 139.511 106.761L137.673 105.973ZM136.487 107.688C135.996 108.167 135.415 108.545 134.732 108.821L135.48 110.675C136.393 110.307 137.198 109.789 137.884 109.12L136.487 107.688ZM134.74 108.817C134.084 109.075 133.355 109.21 132.544 109.21V111.21C133.581 111.21 134.56 111.037 135.472 110.679L134.74 108.817ZM141.545 110H140.545V111H141.545V110ZM141.545 94.46V93.46H140.545V94.46H141.545ZM143.708 94.46H144.708V93.46H143.708V94.46ZM143.708 110V111H144.708V110H143.708ZM142.545 110V94.46H140.545V110H142.545ZM141.545 95.46H143.708V93.46H141.545V95.46ZM142.708 94.46V110H144.708V94.46H142.708ZM143.708 109H141.545V111H143.708V109ZM148.312 109.454L147.75 110.281L147.757 110.286L148.312 109.454ZM146.527 107.396L145.638 107.855L145.638 107.855L146.527 107.396ZM146.527 101.516L145.644 101.046L145.641 101.051L146.527 101.516ZM148.375 99.479L147.845 98.631L147.838 98.6353L148.375 99.479ZM152.575 98.996L152.907 98.053L152.907 98.053L152.575 98.996ZM153.814 99.71L153.153 100.461L153.169 100.475L153.185 100.488L153.814 99.71ZM154.696 100.739L153.827 101.235L153.834 101.247L153.841 101.258L154.696 100.739ZM155.137 101.999L154.808 102.943L156.329 103.472L156.129 101.875L155.137 101.999ZM154.654 101.831H153.654V102.542L154.325 102.775L154.654 101.831ZM154.654 98.975V97.975H153.654V98.975H154.654ZM156.838 98.975H157.838V97.975H156.838V98.975ZM156.838 110V111H157.838V110H156.838ZM154.654 110H153.654V111H154.654V110ZM154.654 107.375L154.374 106.415L153.654 106.625V107.375H154.654ZM155.158 107.228L156.134 107.445L156.501 105.795L154.878 106.268L155.158 107.228ZM154.633 108.341L153.825 107.751L153.821 107.757L154.633 108.341ZM153.646 109.286L153.078 108.463L153.071 108.467L153.064 108.472L153.646 109.286ZM152.323 109.958L151.998 109.012L151.99 109.015L152.323 109.958ZM153.121 107.732L152.582 106.889L152.582 106.889L153.121 107.732ZM154.297 106.409L153.407 105.953L153.402 105.962L154.297 106.409ZM154.297 102.545L153.402 102.992L153.407 103.001L153.411 103.01L154.297 102.545ZM153.121 101.222L152.582 102.065L152.582 102.065L153.121 101.222ZM149.656 101.222L149.117 100.379L149.106 100.386L149.656 101.222ZM148.48 102.545L147.594 102.08L147.59 102.089L147.585 102.098L148.48 102.545ZM148.48 106.409L147.581 106.847L147.587 106.861L147.594 106.874L148.48 106.409ZM149.656 107.732L149.106 108.568L149.117 108.575L149.656 107.732ZM150.811 109.21C150.098 109.21 149.458 109.016 148.866 108.622L147.757 110.286C148.677 110.9 149.704 111.21 150.811 111.21V109.21ZM148.874 108.627C148.282 108.225 147.794 107.671 147.415 106.937L145.638 107.855C146.156 108.857 146.858 109.675 147.75 110.281L148.874 108.627ZM147.415 106.937C147.049 106.227 146.855 105.407 146.855 104.456H144.855C144.855 105.689 145.109 106.829 145.638 107.855L147.415 106.937ZM146.855 104.456C146.855 103.488 147.05 102.671 147.412 101.981L145.641 101.051C145.108 102.069 144.855 103.212 144.855 104.456H146.855ZM147.409 101.986C147.797 101.258 148.298 100.713 148.912 100.323L147.838 98.6353C146.911 99.2251 146.181 100.038 145.644 101.046L147.409 101.986ZM148.905 100.327C149.522 99.9409 150.212 99.744 151 99.744V97.744C149.855 97.744 148.795 98.0371 147.845 98.631L148.905 100.327ZM151 99.744C151.476 99.744 151.886 99.8135 152.242 99.939L152.907 98.053C152.311 97.8425 151.672 97.744 151 97.744V99.744ZM152.242 99.939C152.607 100.068 152.907 100.244 153.153 100.461L154.474 98.9593C154.021 98.5601 153.494 98.26 152.907 98.053L152.242 99.939ZM153.185 100.488C153.456 100.707 153.667 100.955 153.827 101.235L155.564 100.243C155.276 99.7389 154.899 99.3014 154.442 98.9321L153.185 100.488ZM153.841 101.258C154.007 101.531 154.106 101.817 154.144 102.123L156.129 101.875C156.055 101.285 155.86 100.731 155.55 100.22L153.841 101.258ZM155.465 101.055L154.982 100.887L154.325 102.775L154.808 102.943L155.465 101.055ZM155.654 101.831V98.975H153.654V101.831H155.654ZM154.654 99.975H156.838V97.975H154.654V99.975ZM155.838 98.975V110H157.838V98.975H155.838ZM156.838 109H154.654V111H156.838V109ZM155.654 110V107.375H153.654V110H155.654ZM154.934 108.335L155.438 108.188L154.878 106.268L154.374 106.415L154.934 108.335ZM154.181 107.011C154.132 107.234 154.023 107.48 153.825 107.751L155.44 108.931C155.774 108.474 156.015 107.978 156.134 107.445L154.181 107.011ZM153.821 107.757C153.645 108.001 153.403 108.239 153.078 108.463L154.213 110.109C154.7 109.773 155.116 109.381 155.444 108.925L153.821 107.757ZM153.064 108.472C152.757 108.692 152.404 108.873 151.998 109.012L152.647 110.904C153.222 110.707 153.75 110.44 154.227 110.1L153.064 108.472ZM151.99 109.015C151.626 109.143 151.235 109.21 150.811 109.21V111.21C151.45 111.21 152.067 111.109 152.655 110.901L151.99 109.015ZM151.378 109.215C152.207 109.215 152.978 109.01 153.659 108.575L152.582 106.889C152.255 107.098 151.865 107.215 151.378 107.215V109.215ZM153.659 108.575C154.323 108.151 154.834 107.57 155.191 106.856L153.402 105.962C153.199 106.368 152.927 106.669 152.582 106.889L153.659 108.575ZM155.187 106.865C155.562 106.133 155.738 105.322 155.738 104.456H153.738C153.738 105.046 153.619 105.537 153.407 105.953L155.187 106.865ZM155.738 104.456C155.738 103.601 155.561 102.801 155.182 102.08L153.411 103.01C153.621 103.409 153.738 103.883 153.738 104.456H155.738ZM155.191 102.098C154.834 101.384 154.323 100.803 153.659 100.379L152.582 102.065C152.927 102.285 153.199 102.586 153.402 102.992L155.191 102.098ZM153.659 100.379C152.978 99.9444 152.207 99.739 151.378 99.739V101.739C151.865 101.739 152.255 101.856 152.582 102.065L153.659 100.379ZM151.378 99.739C150.558 99.739 149.794 99.9467 149.117 100.379L150.194 102.065C150.525 101.853 150.909 101.739 151.378 101.739V99.739ZM149.106 100.386C148.464 100.809 147.961 101.382 147.594 102.08L149.365 103.01C149.587 102.588 149.868 102.279 150.205 102.058L149.106 100.386ZM147.585 102.098C147.227 102.815 147.06 103.609 147.06 104.456H149.06C149.06 103.875 149.173 103.395 149.374 102.992L147.585 102.098ZM147.06 104.456C147.06 105.315 147.226 106.119 147.581 106.847L149.378 105.971C149.174 105.551 149.06 105.053 149.06 104.456H147.06ZM147.594 106.874C147.961 107.572 148.464 108.145 149.106 108.568L150.205 106.896C149.868 106.675 149.587 106.366 149.365 105.944L147.594 106.874ZM149.117 108.575C149.794 109.007 150.558 109.215 151.378 109.215V107.215C150.909 107.215 150.525 107.101 150.194 106.889L149.117 108.575ZM161.748 109.475L161.207 110.316L161.216 110.322L161.224 110.327L161.748 109.475ZM159.879 107.438L158.996 107.908L158.999 107.914L159.879 107.438ZM159.858 101.537L158.975 101.067L158.972 101.072L159.858 101.537ZM161.727 99.5L162.257 100.348L162.267 100.341L161.727 99.5ZM165.969 99.017L165.629 99.9576L165.645 99.9631L165.66 99.9682L165.969 99.017ZM167.355 99.731L166.75 100.528L166.759 100.534L166.768 100.541L167.355 99.731ZM168.3 100.718L167.448 101.242L167.46 101.261L167.473 101.28L168.3 100.718ZM168.657 101.789L168.723 102.787L169.657 102.725V101.789H168.657ZM168.027 101.831H167.027V102.9L168.093 102.829L168.027 101.831ZM168.027 94.46V93.46H167.027V94.46H168.027ZM170.19 94.46H171.19V93.46H170.19V94.46ZM170.19 110V111H171.19V110H170.19ZM168.027 110H167.027V111H168.027V110ZM168.027 107.375V106.375H167.027V107.375H168.027ZM168.447 107.375H169.447V106.375H168.447V107.375ZM168.111 108.383L168.932 108.954L168.937 108.946L168.943 108.938L168.111 108.383ZM167.208 109.286L166.612 108.482L166.605 108.488L166.598 108.493L167.208 109.286ZM165.927 109.958L165.602 109.012L165.594 109.015L165.927 109.958ZM166.494 107.837L165.939 107.005L165.939 107.005L166.494 107.837ZM167.67 106.472L166.775 106.025L166.771 106.034L167.67 106.472ZM167.67 102.503L166.767 102.933L166.773 102.946L166.78 102.959L167.67 102.503ZM166.494 101.117L165.939 101.949L165.939 101.949L166.494 101.117ZM163.008 101.117L163.562 101.949L163.562 101.949L163.008 101.117ZM161.811 102.503L160.916 102.056L160.912 102.065L161.811 102.503ZM161.811 106.472L160.908 106.902L160.914 106.915L160.921 106.928L161.811 106.472ZM163.008 107.837L163.562 107.005L163.562 107.005L163.008 107.837ZM164.457 109.21C163.619 109.21 162.899 109.009 162.271 108.623L161.224 110.327C162.192 110.921 163.279 111.21 164.457 111.21V109.21ZM162.288 108.634C161.652 108.225 161.143 107.674 160.758 106.962L158.999 107.914C159.538 108.91 160.275 109.717 161.207 110.316L162.288 108.634ZM160.761 106.968C160.386 106.262 160.186 105.44 160.186 104.477H158.186C158.186 105.726 158.448 106.878 158.996 107.908L160.761 106.968ZM160.186 104.477C160.186 103.509 160.381 102.692 160.743 102.002L158.972 101.072C158.439 102.09 158.186 103.233 158.186 104.477H160.186ZM160.74 102.007C161.125 101.283 161.631 100.739 162.257 100.348L161.197 98.652C160.254 99.2409 159.514 100.055 158.975 101.067L160.74 102.007ZM162.267 100.341C162.879 99.9479 163.578 99.744 164.394 99.744V97.744C163.221 97.744 162.142 98.0441 161.186 98.6588L162.267 100.341ZM164.394 99.744C164.826 99.744 165.236 99.8156 165.629 99.9576L166.308 98.0764C165.693 97.8544 165.053 97.744 164.394 97.744V99.744ZM165.66 99.9682C166.079 100.104 166.44 100.292 166.75 100.528L167.959 98.9343C167.458 98.5541 166.894 98.266 166.277 98.0658L165.66 99.9682ZM166.768 100.541C167.086 100.771 167.304 101.007 167.448 101.242L169.151 100.194C168.848 99.7006 168.435 99.2789 167.941 98.9211L166.768 100.541ZM167.473 101.28C167.617 101.492 167.657 101.657 167.657 101.789H169.657C169.657 101.193 169.459 100.644 169.127 100.156L167.473 101.28ZM168.59 100.791L167.96 100.833L168.093 102.829L168.723 102.787L168.59 100.791ZM169.027 101.831V94.46H167.027V101.831H169.027ZM168.027 95.46H170.19V93.46H168.027V95.46ZM169.19 94.46V110H171.19V94.46H169.19ZM170.19 109H168.027V111H170.19V109ZM169.027 110V107.375H167.027V110H169.027ZM168.027 108.375H168.447V106.375H168.027V108.375ZM167.447 107.375C167.447 107.477 167.416 107.623 167.279 107.828L168.943 108.938C169.254 108.471 169.447 107.945 169.447 107.375H167.447ZM167.29 107.812C167.139 108.029 166.92 108.255 166.612 108.482L167.803 110.09C168.251 109.757 168.635 109.381 168.932 108.954L167.29 107.812ZM166.598 108.493C166.33 108.699 166.003 108.875 165.602 109.012L166.251 110.904C166.831 110.705 167.357 110.433 167.817 110.079L166.598 108.493ZM165.594 109.015C165.225 109.145 164.847 109.21 164.457 109.21V111.21C165.074 111.21 165.677 111.107 166.26 110.901L165.594 109.015ZM164.751 109.341C165.588 109.341 166.366 109.124 167.048 108.669L165.939 107.005C165.613 107.222 165.229 107.341 164.751 107.341V109.341ZM167.048 108.669C167.708 108.229 168.215 107.635 168.568 106.91L166.771 106.034C166.564 106.457 166.287 106.773 165.939 107.005L167.048 108.669ZM168.564 106.919C168.936 106.175 169.111 105.354 169.111 104.477H167.111C167.111 105.084 166.991 105.593 166.775 106.025L168.564 106.919ZM169.111 104.477C169.111 103.6 168.936 102.782 168.56 102.047L166.78 102.959C166.991 103.372 167.111 103.87 167.111 104.477H169.111ZM168.573 102.073C168.221 101.335 167.714 100.729 167.048 100.285L165.939 101.949C166.281 102.177 166.558 102.495 166.767 102.933L168.573 102.073ZM167.048 100.285C166.366 99.83 165.588 99.613 164.751 99.613V101.613C165.229 101.613 165.613 101.732 165.939 101.949L167.048 100.285ZM164.751 99.613C163.913 99.613 163.135 99.83 162.453 100.285L163.562 101.949C163.888 101.732 164.272 101.613 164.751 101.613V99.613ZM162.453 100.285C161.792 100.726 161.281 101.326 160.916 102.056L162.705 102.95C162.928 102.504 163.215 102.18 163.562 101.949L162.453 100.285ZM160.912 102.065C160.555 102.796 160.391 103.608 160.391 104.477H162.391C162.391 103.862 162.506 103.358 162.709 102.941L160.912 102.065ZM160.391 104.477C160.391 105.347 160.556 106.162 160.908 106.902L162.714 106.042C162.506 105.606 162.391 105.091 162.391 104.477H160.391ZM160.921 106.928C161.287 107.644 161.798 108.232 162.453 108.669L163.562 107.005C163.21 106.77 162.922 106.448 162.701 106.016L160.921 106.928ZM162.453 108.669C163.135 109.124 163.913 109.341 164.751 109.341V107.341C164.272 107.341 163.888 107.222 163.562 107.005L162.453 108.669ZM99.7316 136H98.7316V137H99.7316V136ZM99.7316 128.671L100.722 128.53L98.7316 128.671H99.7316ZM99.8786 129.7L99.0622 130.278L100.869 129.559L99.8786 129.7ZM93.9356 121.3V120.3H92.0031L93.1192 121.878L93.9356 121.3ZM96.6656 121.3L97.4861 120.728L97.1876 120.3H96.6656V121.3ZM101.202 127.81L101.082 128.803L103.297 129.069L102.022 127.238L101.202 127.81ZM100.677 127.747L99.8325 127.211L98.9814 128.551L100.557 128.74L100.677 127.747ZM104.772 121.3V120.3H104.222L103.927 120.764L104.772 121.3ZM107.376 121.3L108.21 121.85L109.233 120.3H107.376V121.3ZM101.685 129.931L100.708 129.716L102.519 130.481L101.685 129.931ZM102 128.503H103L101.023 128.288L102 128.503ZM102 136V137H103V136H102ZM100.732 136V128.671H98.7316V136H100.732ZM98.7416 128.812L98.8886 129.841L100.869 129.559L100.722 128.53L98.7416 128.812ZM100.695 129.122L94.7519 120.722L93.1192 121.878L99.0622 130.278L100.695 129.122ZM93.9356 122.3H96.6656V120.3H93.9356V122.3ZM95.8451 121.872L100.381 128.382L102.022 127.238L97.4861 120.728L95.8451 121.872ZM101.321 126.817L100.796 126.754L100.557 128.74L101.082 128.803L101.321 126.817ZM101.521 128.283L105.616 121.836L103.927 120.764L99.8325 127.211L101.521 128.283ZM104.772 122.3H107.376V120.3H104.772V122.3ZM106.541 120.75L100.85 129.381L102.519 130.481L108.21 121.85L106.541 120.75ZM102.661 130.146L102.976 128.718L101.023 128.288L100.708 129.716L102.661 130.146ZM101 128.503V136H103V128.503H101ZM102 135H99.7316V137H102V135ZM109.477 135.475L108.963 136.332L108.971 136.338L108.98 136.342L109.477 135.475ZM107.482 133.438L106.611 133.93L106.615 133.936L107.482 133.438ZM107.482 127.537L108.35 128.035L108.353 128.029L107.482 127.537ZM109.477 125.5L109.981 126.364L109.985 126.361L109.477 125.5ZM115.231 125.5L114.717 126.357L114.725 126.363L114.734 126.367L115.231 125.5ZM117.247 127.537L116.376 128.029L116.38 128.035L117.247 127.537ZM117.247 133.438L118.115 133.936L118.118 133.93L117.247 133.438ZM115.231 135.475L115.735 136.339L115.739 136.336L115.231 135.475ZM114.139 133.753L114.667 134.602L114.675 134.597L114.683 134.592L114.139 133.753ZM115.357 132.409L116.243 132.874L116.247 132.865L115.357 132.409ZM115.777 130.477L114.777 130.458L114.777 130.477L114.777 130.497L115.777 130.477ZM115.357 128.545L114.467 129.001L114.472 129.01L115.357 128.545ZM110.59 127.222L111.118 128.071L111.124 128.067L110.59 127.222ZM109.372 128.566L110.258 129.031L110.262 129.022L109.372 128.566ZM108.952 130.477L109.952 130.497L109.952 130.477L109.952 130.457L108.952 130.477ZM109.372 132.409L108.482 132.865L108.487 132.874L109.372 132.409ZM110.59 133.753L110.046 134.592L110.059 134.6L110.072 134.608L110.59 133.753ZM112.375 135.21C111.455 135.21 110.663 135.003 109.975 134.608L108.98 136.342C109.999 136.927 111.14 137.21 112.375 137.21V135.21ZM109.992 134.618C109.299 134.202 108.755 133.647 108.35 132.94L106.615 133.936C107.189 134.937 107.976 135.74 108.963 136.332L109.992 134.618ZM108.353 132.946C107.957 132.244 107.747 131.43 107.747 130.477H105.747C105.747 131.736 106.028 132.896 106.611 133.93L108.353 132.946ZM107.747 130.477C107.747 129.524 107.957 128.719 108.35 128.035L106.615 127.039C106.028 128.063 105.747 129.218 105.747 130.477H107.747ZM108.353 128.029C108.758 127.311 109.298 126.762 109.981 126.364L108.973 124.636C107.976 125.218 107.186 126.027 106.611 127.045L108.353 128.029ZM109.985 126.361C110.672 125.956 111.46 125.744 112.375 125.744V123.744C111.135 123.744 109.99 124.036 108.969 124.639L109.985 126.361ZM112.375 125.744C113.274 125.744 114.045 125.955 114.717 126.357L115.746 124.643C114.737 124.037 113.604 123.744 112.375 123.744V125.744ZM114.734 126.367C115.43 126.767 115.974 127.315 116.376 128.029L118.118 127.045C117.541 126.023 116.741 125.213 115.729 124.633L114.734 126.367ZM116.38 128.035C116.773 128.719 116.982 129.524 116.982 130.477H118.982C118.982 129.218 118.702 128.063 118.115 127.039L116.38 128.035ZM116.982 130.477C116.982 131.43 116.773 132.244 116.376 132.946L118.118 133.93C118.702 132.896 118.982 131.736 118.982 130.477H116.982ZM116.38 132.94C115.977 133.643 115.429 134.197 114.723 134.614L115.739 136.336C116.742 135.745 117.538 134.941 118.115 133.936L116.38 132.94ZM114.727 134.611C114.054 135.004 113.279 135.21 112.375 135.21V137.21C113.599 137.21 114.728 136.926 115.735 136.339L114.727 134.611ZM112.375 135.236C113.205 135.236 113.978 135.031 114.667 134.602L113.611 132.904C113.264 133.119 112.862 133.236 112.375 133.236V135.236ZM114.683 134.592C115.349 134.16 115.871 133.582 116.243 132.874L114.472 131.944C114.256 132.356 113.965 132.674 113.595 132.914L114.683 134.592ZM116.247 132.865C116.624 132.129 116.794 131.318 116.777 130.457L114.777 130.497C114.789 131.064 114.678 131.541 114.467 131.953L116.247 132.865ZM116.777 130.496C116.794 129.626 116.626 128.811 116.243 128.08L114.472 129.01C114.676 129.399 114.789 129.872 114.777 130.458L116.777 130.496ZM116.247 128.089C115.875 127.363 115.348 126.775 114.667 126.352L113.611 128.05C113.966 128.271 114.251 128.579 114.467 129.001L116.247 128.089ZM114.667 126.352C113.978 125.923 113.205 125.718 112.375 125.718V127.718C112.862 127.718 113.264 127.835 113.611 128.05L114.667 126.352ZM112.375 125.718C111.537 125.718 110.756 125.935 110.056 126.377L111.124 128.067C111.489 127.837 111.897 127.718 112.375 127.718V125.718ZM110.062 126.373C109.381 126.796 108.854 127.384 108.482 128.11L110.262 129.022C110.478 128.6 110.763 128.292 111.118 128.071L110.062 126.373ZM108.487 128.101C108.105 128.829 107.936 129.636 107.952 130.497L109.952 130.457C109.941 129.89 110.052 129.423 110.258 129.031L108.487 128.101ZM107.952 130.457C107.936 131.318 108.105 132.129 108.482 132.865L110.262 131.953C110.051 131.541 109.941 131.064 109.952 130.497L107.952 130.457ZM108.487 132.874C108.859 133.582 109.38 134.16 110.046 134.592L111.134 132.914C110.764 132.674 110.474 132.356 110.258 131.944L108.487 132.874ZM110.072 134.608C110.77 135.031 111.546 135.236 112.375 135.236V133.236C111.889 133.236 111.475 133.119 111.108 132.897L110.072 134.608ZM122.145 135.664L121.61 136.509L121.619 136.514L122.145 135.664ZM120.801 134.131L119.895 134.555L119.899 134.563L119.903 134.571L120.801 134.131ZM120.339 124.975V123.975H119.339V124.975H120.339ZM122.502 124.975H123.502V123.975H122.502V124.975ZM122.796 132.871L121.871 133.252L121.878 133.268L121.886 133.285L122.796 132.871ZM123.678 133.942L123.123 134.774L123.13 134.779L123.137 134.783L123.678 133.942ZM126.198 134.131L126.549 135.067L126.566 135.061L126.583 135.054L126.198 134.131ZM127.059 133.564L126.373 132.837L126.362 132.847L126.352 132.857L127.059 133.564ZM127.857 124.975V123.975H126.857V124.975H127.857ZM130.02 124.975H131.02V123.975H130.02V124.975ZM130.02 136V137H131.02V136H130.02ZM127.857 136H126.857V137H127.857V136ZM127.857 133.69L127.302 132.858L126.857 133.155V133.69H127.857ZM128.235 133.438L129.186 133.747L130.074 131.01L127.68 132.606L128.235 133.438ZM127.374 134.845L126.655 134.15L126.649 134.156L126.643 134.163L127.374 134.845ZM125.967 135.853L126.367 136.77L126.377 136.765L126.386 136.761L125.967 135.853ZM124.203 135.21C123.58 135.21 123.081 135.067 122.672 134.814L121.619 136.514C122.385 136.989 123.259 137.21 124.203 137.21V135.21ZM122.681 134.819C122.275 134.562 121.947 134.197 121.699 133.691L119.903 134.571C120.3 135.381 120.867 136.038 121.61 136.509L122.681 134.819ZM121.707 133.707C121.475 133.211 121.339 132.578 121.339 131.779H119.339C119.339 132.8 119.512 133.735 119.895 134.555L121.707 133.707ZM121.339 131.779V124.975H119.339V131.779H121.339ZM120.339 125.975H122.502V123.975H120.339V125.975ZM121.502 124.975V131.191H123.502V124.975H121.502ZM121.502 131.191C121.502 131.934 121.615 132.629 121.871 133.252L123.721 132.49C123.585 132.161 123.502 131.736 123.502 131.191H121.502ZM121.886 133.285C122.164 133.896 122.572 134.407 123.123 134.774L124.233 133.11C124.028 132.973 123.849 132.77 123.707 132.457L121.886 133.285ZM123.137 134.783C123.717 135.156 124.381 135.32 125.085 135.32V133.32C124.697 133.32 124.424 133.232 124.219 133.101L123.137 134.783ZM125.085 135.32C125.595 135.32 126.087 135.241 126.549 135.067L125.847 133.195C125.637 133.273 125.387 133.32 125.085 133.32V135.32ZM126.583 135.054C127.029 134.868 127.429 134.609 127.766 134.271L126.352 132.857C126.214 132.995 126.039 133.114 125.814 133.208L126.583 135.054ZM127.746 134.291C128.105 133.952 128.379 133.546 128.57 133.088L126.724 132.318C126.635 132.532 126.517 132.7 126.373 132.837L127.746 134.291ZM128.57 133.088C128.765 132.621 128.857 132.125 128.857 131.611H126.857C126.857 131.881 126.809 132.113 126.724 132.318L128.57 133.088ZM128.857 131.611V124.975H126.857V131.611H128.857ZM127.857 125.975H130.02V123.975H127.857V125.975ZM129.02 124.975V136H131.02V124.975H129.02ZM130.02 135H127.857V137H130.02V135ZM128.857 136V133.69H126.857V136H128.857ZM128.412 134.522L128.79 134.27L127.68 132.606L127.302 132.858L128.412 134.522ZM127.284 133.129C127.166 133.492 126.963 133.831 126.655 134.15L128.093 135.54C128.597 135.019 128.968 134.42 129.186 133.747L127.284 133.129ZM126.643 134.163C126.344 134.484 125.982 134.745 125.548 134.945L126.386 136.761C127.044 136.457 127.621 136.046 128.105 135.527L126.643 134.163ZM125.568 134.936C125.155 135.116 124.704 135.21 124.203 135.21V137.21C124.963 137.21 125.687 137.066 126.367 136.77L125.568 134.936ZM132.76 126.025L131.989 126.662L132.412 127.174L133.047 126.983L132.76 126.025ZM131.962 125.059L131.543 124.151L130.364 124.695L131.191 125.696L131.962 125.059ZM133.306 124.198L133.983 124.934L133.983 124.934L133.306 124.198ZM133.6 122.875L132.893 123.582L132.91 123.599L132.927 123.615L133.6 122.875ZM133.18 122.497L132.547 123.271L132.556 123.279L132.566 123.286L133.18 122.497ZM132.55 121.867L131.686 122.371L131.701 122.397L131.718 122.422L132.55 121.867ZM132.76 120.544L133.396 121.316L133.409 121.305L133.422 121.294L132.76 120.544ZM134.734 120.544L134.171 121.37L134.192 121.385L134.214 121.398L134.734 120.544ZM135.49 121.363L134.603 121.824L134.603 121.824L135.49 121.363ZM135.532 123.673L136.447 124.076L136.447 124.076L135.532 123.673ZM134.881 124.66L134.141 123.987L134.132 123.997L134.124 124.006L134.881 124.66ZM133.936 125.479L133.389 124.642L133.389 124.642L133.936 125.479ZM133.531 125.388L132.733 124.422L131.191 125.696L131.989 126.662L133.531 125.388ZM132.381 125.967C132.998 125.682 133.539 125.342 133.983 124.934L132.629 123.462C132.373 123.698 132.018 123.932 131.543 124.151L132.381 125.967ZM133.983 124.934C134.358 124.589 134.831 124.051 134.831 123.358H132.831C132.831 123.23 132.877 123.176 132.852 123.217C132.828 123.255 132.764 123.338 132.629 123.462L133.983 124.934ZM134.831 123.358C134.831 122.853 134.602 122.435 134.273 122.135L132.927 123.615C132.924 123.612 132.897 123.586 132.871 123.532C132.844 123.475 132.831 123.413 132.831 123.358H134.831ZM134.307 122.168C134.134 121.994 133.962 121.838 133.794 121.708L132.566 123.286C132.65 123.352 132.758 123.448 132.893 123.582L134.307 122.168ZM133.813 121.723C133.523 121.485 133.408 121.352 133.382 121.312L131.718 122.422C131.916 122.718 132.221 123.005 132.547 123.271L133.813 121.723ZM133.414 121.363C133.409 121.355 133.406 121.349 133.405 121.346C133.403 121.342 133.403 121.34 133.403 121.34C133.403 121.34 133.403 121.34 133.403 121.341C133.403 121.342 133.403 121.342 133.403 121.342H131.403C131.403 121.713 131.505 122.061 131.686 122.371L133.414 121.363ZM133.403 121.342C133.403 121.317 133.405 121.303 133.406 121.297C133.407 121.292 133.408 121.293 133.405 121.299C133.402 121.305 133.399 121.311 133.395 121.316C133.392 121.32 133.391 121.32 133.396 121.316L132.124 119.772C131.633 120.177 131.403 120.738 131.403 121.342H133.403ZM133.422 121.294C133.443 121.275 133.501 121.229 133.684 121.229V119.229C133.111 119.229 132.553 119.393 132.098 119.794L133.422 121.294ZM133.684 121.229C133.886 121.229 134.038 121.279 134.171 121.37L135.297 119.718C134.814 119.389 134.266 119.229 133.684 119.229V121.229ZM134.214 121.398C134.373 121.495 134.501 121.628 134.603 121.824L136.377 120.902C136.115 120.397 135.739 119.985 135.254 119.69L134.214 121.398ZM134.603 121.824C134.697 122.005 134.763 122.254 134.763 122.602H136.763C136.763 121.998 136.647 121.421 136.377 120.902L134.603 121.824ZM134.763 122.602C134.763 122.82 134.718 123.041 134.617 123.27L136.447 124.076C136.654 123.605 136.763 123.112 136.763 122.602H134.763ZM134.617 123.27C134.51 123.513 134.355 123.752 134.141 123.987L135.621 125.333C135.967 124.952 136.246 124.533 136.447 124.076L134.617 123.27ZM134.124 124.006C133.923 124.239 133.68 124.452 133.389 124.642L134.483 126.316C134.92 126.03 135.307 125.697 135.638 125.314L134.124 124.006ZM133.389 124.642C133.106 124.827 132.801 124.969 132.473 125.067L133.047 126.983C133.559 126.829 134.038 126.607 134.483 126.316L133.389 124.642ZM137.484 136H136.484V137H137.484V136ZM137.484 124.975V123.975H136.484V124.975H137.484ZM139.668 124.975H140.668V123.975H139.668V124.975ZM139.668 128.44L138.698 128.683L140.668 128.44H139.668ZM139.458 127.6L138.497 127.322L138.422 127.581L138.488 127.843L139.458 127.6ZM140.235 126.151L139.481 125.494L139.474 125.501L139.468 125.508L140.235 126.151ZM141.516 125.122L141.058 124.233L141.048 124.238L141.516 125.122ZM143.7 124.807L143.504 125.788L143.515 125.79L143.7 124.807ZM144.225 124.954L145.197 125.188L145.392 124.379L144.631 124.04L144.225 124.954ZM143.658 127.306L143.273 128.229L144.355 128.68L144.63 127.54L143.658 127.306ZM143.091 127.138L142.816 128.1L142.855 128.111L142.895 128.119L143.091 127.138ZM141.411 127.285L141.795 128.208L141.804 128.204L141.813 128.2L141.411 127.285ZM140.508 127.894L141.215 128.601L141.215 128.601L140.508 127.894ZM139.899 128.797L140.808 129.214L140.811 129.207L140.814 129.2L139.899 128.797ZM139.668 136V137H140.668V136H139.668ZM138.484 136V124.975H136.484V136H138.484ZM137.484 125.975H139.668V123.975H137.484V125.975ZM138.668 124.975V128.44H140.668V124.975H138.668ZM140.638 128.197L140.428 127.357L138.488 127.843L138.698 128.683L140.638 128.197ZM140.418 127.878C140.533 127.483 140.724 127.123 141.001 126.794L139.468 125.508C139.017 126.047 138.691 126.653 138.497 127.322L140.418 127.878ZM140.989 126.808C141.292 126.46 141.623 126.196 141.984 126.006L141.048 124.238C140.456 124.552 139.934 124.974 139.481 125.494L140.989 126.808ZM141.973 126.011C142.331 125.827 142.679 125.744 143.028 125.744V123.744C142.341 123.744 141.681 123.913 141.058 124.233L141.973 126.011ZM143.028 125.744C143.207 125.744 143.365 125.76 143.504 125.788L143.896 123.826C143.615 123.77 143.324 123.744 143.028 123.744V125.744ZM143.515 125.79C143.706 125.826 143.795 125.857 143.819 125.868L144.631 124.04C144.403 123.939 144.142 123.872 143.884 123.824L143.515 125.79ZM143.253 124.72L142.686 127.072L144.63 127.54L145.197 125.188L143.253 124.72ZM144.042 126.383C143.804 126.284 143.55 126.21 143.287 126.157L142.895 128.119C143.051 128.15 143.175 128.188 143.273 128.229L144.042 126.383ZM143.365 126.176C143.084 126.096 142.795 126.054 142.503 126.054V128.054C142.602 128.054 142.706 128.068 142.816 128.1L143.365 126.176ZM142.503 126.054C141.984 126.054 141.483 126.161 141.008 126.37L141.813 128.2C142.038 128.101 142.265 128.054 142.503 128.054V126.054ZM141.026 126.362C140.565 126.554 140.156 126.832 139.801 127.187L141.215 128.601C141.392 128.424 141.584 128.296 141.795 128.208L141.026 126.362ZM139.801 127.187C139.455 127.533 139.184 127.939 138.983 128.394L140.814 129.2C140.922 128.955 141.057 128.759 141.215 128.601L139.801 127.187ZM138.99 128.38C138.77 128.859 138.668 129.374 138.668 129.91H140.668C140.668 129.634 140.719 129.407 140.808 129.214L138.99 128.38ZM138.668 129.91V136H140.668V129.91H138.668ZM139.668 135H137.484V137H139.668V135ZM147.603 135.496L147.111 136.367L147.119 136.372L147.128 136.376L147.603 135.496ZM145.545 133.501L144.681 134.005L144.687 134.015L145.545 133.501ZM145.23 128.23L146.161 128.595L146.161 128.595L145.23 128.23ZM146.385 126.382L145.659 125.694L145.658 125.695L146.385 126.382ZM148.17 125.164L148.548 126.09L148.557 126.086L148.17 125.164ZM152.433 125.143L152.019 126.053L152.028 126.057L152.036 126.061L152.433 125.143ZM154.029 126.256L153.301 126.941L153.306 126.947L153.311 126.952L154.029 126.256ZM155.079 127.957L154.138 128.297L154.143 128.309L154.147 128.321L155.079 127.957ZM155.436 130.078L156.435 130.101L156.436 130.096L155.436 130.078ZM155.415 131.002V132.002H156.392L156.414 131.025L155.415 131.002ZM146.406 131.002L145.443 131.272L145.648 132.002H146.406V131.002ZM145.923 129.28V128.28H144.604L144.96 129.55L145.923 129.28ZM153.546 129.28L154.296 129.942L155.762 128.28H153.546V129.28ZM153.231 129.637H152.231V132.282L153.981 130.299L153.231 129.637ZM153.231 129.133H154.231V129.088L154.227 129.042L153.231 129.133ZM152.769 127.894L153.576 127.304L153.576 127.304L152.769 127.894ZM151.761 127.033L151.301 127.921L151.301 127.921L151.761 127.033ZM148.527 127.159L149.002 128.039L149.011 128.034L149.02 128.029L148.527 127.159ZM147.351 128.419L148.25 128.857L148.254 128.848L147.351 128.419ZM147.435 132.472L146.563 132.961L146.568 132.97L147.435 132.472ZM148.8 133.774L148.336 134.66L148.336 134.66L148.8 133.774ZM152.349 133.963L151.992 133.029L151.982 133.033L152.349 133.963ZM153.882 132.976L154.696 132.396L154.056 131.497L153.225 132.222L153.882 132.976ZM154.974 134.509L155.681 135.216L156.279 134.618L155.788 133.929L154.974 134.509ZM153.735 135.391L153.277 134.502L153.267 134.507L153.735 135.391ZM152.202 136L152.456 136.967L152.465 136.965L152.473 136.962L152.202 136ZM150.627 135.21C149.636 135.21 148.795 135.003 148.078 134.616L147.128 136.376C148.174 136.941 149.349 137.21 150.627 137.21V135.21ZM148.094 134.625C147.374 134.219 146.816 133.675 146.402 132.987L144.687 134.015C145.282 135.007 146.095 135.793 147.111 136.367L148.094 134.625ZM146.409 132.997C146.018 132.328 145.81 131.54 145.81 130.603H143.81C143.81 131.85 144.091 132.994 144.681 134.005L146.409 132.997ZM145.81 130.603C145.81 129.844 145.932 129.178 146.161 128.595L144.299 127.865C143.968 128.71 143.81 129.626 143.81 130.603H145.81ZM146.161 128.595C146.397 127.991 146.716 127.487 147.111 127.069L145.658 125.695C145.074 126.313 144.622 127.041 144.299 127.865L146.161 128.595ZM147.111 127.07C147.516 126.642 147.992 126.317 148.548 126.09L147.792 124.238C146.976 124.571 146.262 125.058 145.659 125.694L147.111 127.07ZM148.557 126.086C149.126 125.847 149.749 125.723 150.438 125.723V123.723C149.502 123.723 148.613 123.893 147.782 124.242L148.557 126.086ZM150.438 125.723C151.017 125.723 151.54 125.836 152.019 126.053L152.847 124.233C152.093 123.89 151.286 123.723 150.438 123.723V125.723ZM152.036 126.061C152.53 126.274 152.949 126.567 153.301 126.941L154.757 125.571C154.213 124.993 153.567 124.544 152.829 124.225L152.036 126.061ZM153.311 126.952C153.669 127.321 153.946 127.765 154.138 128.297L156.019 127.617C155.736 126.833 155.312 126.143 154.746 125.56L153.311 126.952ZM154.147 128.321C154.347 128.83 154.448 129.406 154.436 130.06L156.436 130.096C156.452 129.21 156.315 128.372 156.01 127.593L154.147 128.321ZM154.436 130.055L154.415 130.979L156.414 131.025L156.435 130.101L154.436 130.055ZM155.415 130.002H146.406V132.002H155.415V130.002ZM147.369 130.732L146.886 129.01L144.96 129.55L145.443 131.272L147.369 130.732ZM145.923 130.28H153.546V128.28H145.923V130.28ZM152.796 128.618L152.481 128.975L153.981 130.299L154.296 129.942L152.796 128.618ZM154.231 129.637V129.133H152.231V129.637H154.231ZM154.227 129.042C154.169 128.405 153.952 127.819 153.576 127.304L151.961 128.484C152.117 128.697 152.209 128.937 152.235 129.224L154.227 129.042ZM153.576 127.304C153.217 126.813 152.762 126.425 152.22 126.145L151.301 127.921C151.572 128.061 151.788 128.247 151.961 128.484L153.576 127.304ZM152.22 126.145C151.666 125.858 151.067 125.718 150.438 125.718V127.718C150.761 127.718 151.043 127.788 151.301 127.921L152.22 126.145ZM150.438 125.718C149.554 125.718 148.737 125.89 148.033 126.289L149.02 128.029C149.353 127.84 149.809 127.718 150.438 127.718V125.718ZM148.051 126.279C147.336 126.666 146.799 127.249 146.447 127.99L148.254 128.848C148.434 128.469 148.681 128.212 149.002 128.039L148.051 126.279ZM146.452 127.981C146.101 128.701 145.952 129.541 145.952 130.456H147.952C147.952 129.747 148.069 129.229 148.25 128.857L146.452 127.981ZM145.952 130.456C145.952 131.368 146.143 132.214 146.563 132.961L148.307 131.983C148.082 131.582 147.952 131.084 147.952 130.456H145.952ZM146.568 132.97C146.987 133.7 147.584 134.266 148.336 134.66L149.264 132.888C148.839 132.666 148.526 132.364 148.302 131.974L146.568 132.97ZM148.336 134.66C149.088 135.054 149.931 135.236 150.837 135.236V133.236C150.202 133.236 149.687 133.11 149.264 132.888L148.336 134.66ZM150.837 135.236C151.496 135.236 152.125 135.126 152.715 134.893L151.982 133.033C151.648 133.164 151.27 133.236 150.837 133.236V135.236ZM152.706 134.897C153.327 134.659 153.939 134.253 154.539 133.73L153.225 132.222C152.733 132.651 152.322 132.903 151.992 133.029L152.706 134.897ZM153.067 133.556L154.159 135.089L155.788 133.929L154.696 132.396L153.067 133.556ZM154.267 133.802C154.015 134.054 153.69 134.29 153.277 134.502L154.192 136.28C154.76 135.988 155.261 135.636 155.681 135.216L154.267 133.802ZM153.267 134.507C152.857 134.724 152.412 134.902 151.93 135.038L152.473 136.962C153.084 136.79 153.661 136.562 154.203 136.275L153.267 134.507ZM151.947 135.033C151.493 135.152 151.054 135.21 150.627 135.21V137.21C151.236 137.21 151.846 137.128 152.456 136.967L151.947 135.033ZM106.129 162H105.129V163H106.129V162ZM106.129 147.3V146.3H105.129V147.3H106.129ZM108.397 147.3H109.397V146.3H108.397V147.3ZM108.397 162V163H109.397V162H108.397ZM96.5321 162H95.5321V163H96.5321V162ZM96.5321 147.3V146.3H95.5321V147.3H96.5321ZM98.8001 147.3H99.8001V146.3H98.8001V147.3ZM98.8001 162V163H99.8001V162H98.8001ZM97.5191 155.763H96.5191V156.763H97.5191V155.763ZM97.5191 153.579V152.579H96.5191V153.579H97.5191ZM107.137 153.579H108.137V152.579H107.137V153.579ZM107.137 155.763V156.763H108.137V155.763H107.137ZM107.129 162V147.3H105.129V162H107.129ZM106.129 148.3H108.397V146.3H106.129V148.3ZM107.397 147.3V162H109.397V147.3H107.397ZM108.397 161H106.129V163H108.397V161ZM97.5321 162V147.3H95.5321V162H97.5321ZM96.5321 148.3H98.8001V146.3H96.5321V148.3ZM97.8001 147.3V162H99.8001V147.3H97.8001ZM98.8001 161H96.5321V163H98.8001V161ZM98.5191 155.763V153.579H96.5191V155.763H98.5191ZM97.5191 154.579H107.137V152.579H97.5191V154.579ZM106.137 153.579V155.763H108.137V153.579H106.137ZM107.137 154.763H97.5191V156.763H107.137V154.763ZM114.083 161.496L113.591 162.367L113.599 162.372L113.608 162.376L114.083 161.496ZM112.025 159.501L111.161 160.005L111.167 160.015L112.025 159.501ZM111.71 154.23L112.641 154.595L112.641 154.595L111.71 154.23ZM112.865 152.382L112.139 151.694L112.138 151.695L112.865 152.382ZM114.65 151.164L115.028 152.09L115.037 152.086L114.65 151.164ZM118.913 151.143L118.499 152.053L118.508 152.057L118.516 152.061L118.913 151.143ZM120.509 152.256L119.781 152.941L119.786 152.947L119.791 152.952L120.509 152.256ZM121.559 153.957L120.618 154.297L120.623 154.309L120.627 154.321L121.559 153.957ZM121.916 156.078L122.915 156.101L122.916 156.096L121.916 156.078ZM121.895 157.002V158.002H122.872L122.894 157.025L121.895 157.002ZM112.886 157.002L111.923 157.272L112.128 158.002H112.886V157.002ZM112.403 155.28V154.28H111.084L111.44 155.55L112.403 155.28ZM120.026 155.28L120.776 155.942L122.242 154.28H120.026V155.28ZM119.711 155.637H118.711V158.282L120.461 156.299L119.711 155.637ZM119.711 155.133H120.711V155.088L120.707 155.042L119.711 155.133ZM119.249 153.894L120.056 153.304L120.056 153.304L119.249 153.894ZM118.241 153.033L117.781 153.921L117.781 153.921L118.241 153.033ZM115.007 153.159L115.482 154.039L115.491 154.034L115.5 154.029L115.007 153.159ZM113.831 154.419L114.73 154.857L114.734 154.848L113.831 154.419ZM113.915 158.472L113.043 158.961L113.048 158.97L113.915 158.472ZM115.28 159.774L114.816 160.66L114.816 160.66L115.28 159.774ZM118.829 159.963L118.472 159.029L118.462 159.033L118.829 159.963ZM120.362 158.976L121.176 158.396L120.536 157.497L119.705 158.222L120.362 158.976ZM121.454 160.509L122.161 161.216L122.759 160.618L122.268 159.929L121.454 160.509ZM120.215 161.391L119.757 160.502L119.747 160.507L120.215 161.391ZM118.682 162L118.936 162.967L118.945 162.965L118.953 162.962L118.682 162ZM117.107 161.21C116.116 161.21 115.275 161.003 114.558 160.616L113.608 162.376C114.654 162.941 115.829 163.21 117.107 163.21V161.21ZM114.574 160.625C113.854 160.219 113.296 159.675 112.882 158.987L111.167 160.015C111.762 161.007 112.575 161.793 113.591 162.367L114.574 160.625ZM112.888 158.997C112.498 158.328 112.29 157.54 112.29 156.603H110.29C110.29 157.85 110.571 158.994 111.161 160.005L112.888 158.997ZM112.29 156.603C112.29 155.844 112.412 155.178 112.641 154.595L110.779 153.865C110.448 154.71 110.29 155.626 110.29 156.603H112.29ZM112.641 154.595C112.877 153.991 113.196 153.487 113.591 153.069L112.138 151.695C111.554 152.313 111.102 153.041 110.779 153.865L112.641 154.595ZM113.591 153.07C113.996 152.642 114.472 152.317 115.028 152.09L114.272 150.238C113.456 150.571 112.742 151.058 112.139 151.694L113.591 153.07ZM115.037 152.086C115.606 151.847 116.229 151.723 116.918 151.723V149.723C115.982 149.723 115.093 149.893 114.262 150.242L115.037 152.086ZM116.918 151.723C117.497 151.723 118.02 151.836 118.499 152.053L119.327 150.233C118.573 149.89 117.766 149.723 116.918 149.723V151.723ZM118.516 152.061C119.01 152.274 119.429 152.567 119.781 152.941L121.237 151.571C120.693 150.993 120.047 150.544 119.309 150.225L118.516 152.061ZM119.791 152.952C120.149 153.321 120.426 153.765 120.618 154.297L122.499 153.617C122.216 152.833 121.792 152.143 121.226 151.56L119.791 152.952ZM120.627 154.321C120.827 154.83 120.928 155.406 120.916 156.06L122.916 156.096C122.932 155.21 122.795 154.372 122.49 153.593L120.627 154.321ZM120.916 156.055L120.895 156.979L122.894 157.025L122.915 156.101L120.916 156.055ZM121.895 156.002H112.886V158.002H121.895V156.002ZM113.849 156.732L113.366 155.01L111.44 155.55L111.923 157.272L113.849 156.732ZM112.403 156.28H120.026V154.28H112.403V156.28ZM119.276 154.618L118.961 154.975L120.461 156.299L120.776 155.942L119.276 154.618ZM120.711 155.637V155.133H118.711V155.637H120.711ZM120.707 155.042C120.649 154.405 120.432 153.819 120.056 153.304L118.441 154.484C118.597 154.697 118.689 154.937 118.715 155.224L120.707 155.042ZM120.056 153.304C119.697 152.813 119.242 152.425 118.7 152.145L117.781 153.921C118.052 154.061 118.268 154.247 118.441 154.484L120.056 153.304ZM118.7 152.145C118.146 151.858 117.547 151.718 116.918 151.718V153.718C117.241 153.718 117.523 153.788 117.781 153.921L118.7 152.145ZM116.918 151.718C116.034 151.718 115.217 151.89 114.513 152.289L115.5 154.029C115.832 153.84 116.289 153.718 116.918 153.718V151.718ZM114.531 152.279C113.816 152.666 113.279 153.249 112.927 153.99L114.734 154.848C114.914 154.469 115.161 154.212 115.482 154.039L114.531 152.279ZM112.932 153.981C112.581 154.701 112.432 155.541 112.432 156.456H114.432C114.432 155.747 114.549 155.229 114.73 154.857L112.932 153.981ZM112.432 156.456C112.432 157.368 112.623 158.214 113.043 158.961L114.787 157.983C114.562 157.582 114.432 157.084 114.432 156.456H112.432ZM113.048 158.97C113.467 159.7 114.064 160.266 114.816 160.66L115.744 158.888C115.319 158.666 115.006 158.364 114.782 157.974L113.048 158.97ZM114.816 160.66C115.568 161.054 116.411 161.236 117.317 161.236V159.236C116.682 159.236 116.167 159.11 115.744 158.888L114.816 160.66ZM117.317 161.236C117.976 161.236 118.605 161.126 119.195 160.893L118.462 159.033C118.128 159.164 117.75 159.236 117.317 159.236V161.236ZM119.186 160.897C119.807 160.659 120.419 160.253 121.019 159.73L119.705 158.222C119.213 158.651 118.802 158.903 118.472 159.029L119.186 160.897ZM119.547 159.556L120.639 161.089L122.268 159.929L121.176 158.396L119.547 159.556ZM120.747 159.802C120.495 160.054 120.17 160.29 119.757 160.502L120.672 162.28C121.24 161.988 121.741 161.636 122.161 161.216L120.747 159.802ZM119.747 160.507C119.337 160.724 118.892 160.902 118.41 161.038L118.953 162.962C119.564 162.79 120.141 162.562 120.683 162.275L119.747 160.507ZM118.427 161.033C117.973 161.152 117.534 161.21 117.107 161.21V163.21C117.716 163.21 118.326 163.128 118.936 162.967L118.427 161.033ZM124.266 162H123.266V163H124.266V162ZM124.266 150.975V149.975H123.266V150.975H124.266ZM126.45 150.975H127.45V149.975H126.45V150.975ZM126.45 154.44L125.48 154.683L127.45 154.44H126.45ZM126.24 153.6L125.28 153.322L125.205 153.581L125.27 153.843L126.24 153.6ZM127.017 152.151L126.263 151.494L126.257 151.501L126.251 151.508L127.017 152.151ZM128.298 151.122L127.841 150.233L127.831 150.238L128.298 151.122ZM130.482 150.807L130.286 151.788L130.298 151.79L130.482 150.807ZM131.007 150.954L131.98 151.188L132.175 150.379L131.414 150.04L131.007 150.954ZM130.44 153.306L130.056 154.229L131.138 154.68L131.413 153.54L130.44 153.306ZM129.873 153.138L129.599 154.1L129.638 154.111L129.677 154.119L129.873 153.138ZM128.193 153.285L128.578 154.208L128.587 154.204L128.596 154.2L128.193 153.285ZM127.29 153.894L127.998 154.601L127.998 154.601L127.29 153.894ZM126.681 154.797L127.59 155.214L127.594 155.207L127.597 155.2L126.681 154.797ZM126.45 162V163H127.45V162H126.45ZM125.266 162V150.975H123.266V162H125.266ZM124.266 151.975H126.45V149.975H124.266V151.975ZM125.45 150.975V154.44H127.45V150.975H125.45ZM127.421 154.197L127.211 153.357L125.27 153.843L125.48 154.683L127.421 154.197ZM127.201 153.878C127.315 153.483 127.507 153.123 127.784 152.794L126.251 151.508C125.8 152.047 125.473 152.653 125.28 153.322L127.201 153.878ZM127.771 152.808C128.074 152.46 128.406 152.196 128.766 152.006L127.831 150.238C127.239 150.552 126.716 150.974 126.263 151.494L127.771 152.808ZM128.756 152.011C129.114 151.827 129.462 151.744 129.81 151.744V149.744C129.123 149.744 128.463 149.913 127.841 150.233L128.756 152.011ZM129.81 151.744C129.99 151.744 130.148 151.76 130.286 151.788L130.679 149.826C130.397 149.77 130.107 149.744 129.81 149.744V151.744ZM130.298 151.79C130.488 151.826 130.577 151.857 130.601 151.868L131.414 150.04C131.186 149.939 130.924 149.872 130.667 149.824L130.298 151.79ZM130.035 150.72L129.468 153.072L131.413 153.54L131.98 151.188L130.035 150.72ZM130.825 152.383C130.587 152.284 130.333 152.21 130.07 152.157L129.677 154.119C129.834 154.15 129.958 154.188 130.056 154.229L130.825 152.383ZM130.148 152.176C129.866 152.096 129.578 152.054 129.285 152.054V154.054C129.385 154.054 129.488 154.068 129.599 154.1L130.148 152.176ZM129.285 152.054C128.767 152.054 128.266 152.161 127.791 152.37L128.596 154.2C128.821 154.101 129.048 154.054 129.285 154.054V152.054ZM127.809 152.362C127.348 152.554 126.938 152.832 126.583 153.187L127.998 154.601C128.174 154.424 128.367 154.296 128.578 154.208L127.809 152.362ZM126.583 153.187C126.237 153.533 125.966 153.939 125.766 154.394L127.597 155.2C127.704 154.955 127.839 154.759 127.998 154.601L126.583 153.187ZM125.772 154.38C125.553 154.859 125.45 155.374 125.45 155.91H127.45C127.45 155.634 127.502 155.407 127.59 155.214L125.772 154.38ZM125.45 155.91V162H127.45V155.91H125.45ZM126.45 161H124.266V163H126.45V161ZM134.385 161.496L133.894 162.367L133.902 162.372L133.911 162.376L134.385 161.496ZM132.327 159.501L131.464 160.005L131.47 160.015L132.327 159.501ZM132.012 154.23L132.943 154.595L132.943 154.595L132.012 154.23ZM133.167 152.382L132.441 151.694L132.441 151.695L133.167 152.382ZM134.952 151.164L135.33 152.09L135.34 152.086L134.952 151.164ZM139.215 151.143L138.802 152.053L138.81 152.057L138.819 152.061L139.215 151.143ZM140.811 152.256L140.083 152.941L140.089 152.947L140.094 152.952L140.811 152.256ZM141.861 153.957L140.921 154.297L140.925 154.309L140.93 154.321L141.861 153.957ZM142.218 156.078L143.218 156.101L143.218 156.096L142.218 156.078ZM142.197 157.002V158.002H143.175L143.197 157.025L142.197 157.002ZM133.188 157.002L132.226 157.272L132.43 158.002H133.188V157.002ZM132.705 155.28V154.28H131.386L131.743 155.55L132.705 155.28ZM140.328 155.28L141.078 155.942L142.544 154.28H140.328V155.28ZM140.013 155.637H139.013V158.282L140.763 156.299L140.013 155.637ZM140.013 155.133H141.013V155.088L141.009 155.042L140.013 155.133ZM139.551 153.894L140.359 153.304L140.359 153.304L139.551 153.894ZM138.543 153.033L138.084 153.921L138.084 153.921L138.543 153.033ZM135.309 153.159L135.785 154.039L135.794 154.034L135.803 154.029L135.309 153.159ZM134.133 154.419L135.032 154.857L135.037 154.848L134.133 154.419ZM134.217 158.472L133.345 158.961L133.351 158.97L134.217 158.472ZM135.582 159.774L135.118 160.66L135.118 160.66L135.582 159.774ZM139.131 159.963L138.774 159.029L138.765 159.033L139.131 159.963ZM140.664 158.976L141.479 158.396L140.839 157.497L140.007 158.222L140.664 158.976ZM141.756 160.509L142.464 161.216L143.062 160.618L142.571 159.929L141.756 160.509ZM140.517 161.391L140.06 160.502L140.05 160.507L140.517 161.391ZM138.984 162L139.239 162.967L139.247 162.965L139.256 162.962L138.984 162ZM137.409 161.21C136.419 161.21 135.578 161.003 134.86 160.616L133.911 162.376C134.957 162.941 136.132 163.21 137.409 163.21V161.21ZM134.877 160.625C134.157 160.219 133.598 159.675 133.185 158.987L131.47 160.015C132.065 161.007 132.878 161.793 133.894 162.367L134.877 160.625ZM133.191 158.997C132.801 158.328 132.592 157.54 132.592 156.603H130.592C130.592 157.85 130.874 158.994 131.464 160.005L133.191 158.997ZM132.592 156.603C132.592 155.844 132.715 155.178 132.943 154.595L131.081 153.865C130.75 154.71 130.592 155.626 130.592 156.603H132.592ZM132.943 154.595C133.18 153.991 133.499 153.487 133.894 153.069L132.441 151.695C131.856 152.313 131.405 153.041 131.081 153.865L132.943 154.595ZM133.893 153.07C134.299 152.642 134.774 152.317 135.33 152.09L134.575 150.238C133.758 150.571 133.044 151.058 132.441 151.694L133.893 153.07ZM135.34 152.086C135.909 151.847 136.532 151.723 137.22 151.723V149.723C136.285 149.723 135.396 149.893 134.565 150.242L135.34 152.086ZM137.22 151.723C137.8 151.723 138.323 151.836 138.802 152.053L139.629 150.233C138.876 149.89 138.069 149.723 137.22 149.723V151.723ZM138.819 152.061C139.313 152.274 139.731 152.567 140.083 152.941L141.54 151.571C140.996 150.993 140.35 150.544 139.612 150.225L138.819 152.061ZM140.094 152.952C140.452 153.321 140.729 153.765 140.921 154.297L142.802 153.617C142.518 152.833 142.095 152.143 141.529 151.56L140.094 152.952ZM140.93 154.321C141.129 154.83 141.23 155.406 141.219 156.06L143.218 156.096C143.234 155.21 143.097 154.372 142.793 153.593L140.93 154.321ZM141.219 156.055L141.198 156.979L143.197 157.025L143.218 156.101L141.219 156.055ZM142.197 156.002H133.188V158.002H142.197V156.002ZM134.151 156.732L133.668 155.01L131.743 155.55L132.226 157.272L134.151 156.732ZM132.705 156.28H140.328V154.28H132.705V156.28ZM139.579 154.618L139.264 154.975L140.763 156.299L141.078 155.942L139.579 154.618ZM141.013 155.637V155.133H139.013V155.637H141.013ZM141.009 155.042C140.951 154.405 140.735 153.819 140.359 153.304L138.744 154.484C138.9 154.697 138.991 154.937 139.018 155.224L141.009 155.042ZM140.359 153.304C140 152.813 139.544 152.425 139.003 152.145L138.084 153.921C138.354 154.061 138.571 154.247 138.744 154.484L140.359 153.304ZM139.003 152.145C138.449 151.858 137.849 151.718 137.22 151.718V153.718C137.543 153.718 137.826 153.788 138.084 153.921L139.003 152.145ZM137.22 151.718C136.337 151.718 135.52 151.89 134.816 152.289L135.803 154.029C136.135 153.84 136.592 153.718 137.22 153.718V151.718ZM134.834 152.279C134.119 152.666 133.582 153.249 133.23 153.99L135.037 154.848C135.217 154.469 135.464 154.212 135.785 154.039L134.834 152.279ZM133.234 153.981C132.884 154.701 132.734 155.541 132.734 156.456H134.734C134.734 155.747 134.851 155.229 135.032 154.857L133.234 153.981ZM132.734 156.456C132.734 157.368 132.926 158.214 133.345 158.961L135.09 157.983C134.865 157.582 134.734 157.084 134.734 156.456H132.734ZM133.351 158.97C133.77 159.7 134.367 160.266 135.118 160.66L136.046 158.888C135.622 158.666 135.309 158.364 135.084 157.974L133.351 158.97ZM135.118 160.66C135.871 161.054 136.714 161.236 137.619 161.236V159.236C136.985 159.236 136.47 159.11 136.046 158.888L135.118 160.66ZM137.619 161.236C138.278 161.236 138.908 161.126 139.498 160.893L138.765 159.033C138.431 159.164 138.052 159.236 137.619 159.236V161.236ZM139.489 160.897C140.11 160.659 140.721 160.253 141.322 159.73L140.007 158.222C139.516 158.651 139.105 158.903 138.774 159.029L139.489 160.897ZM139.85 159.556L140.942 161.089L142.571 159.929L141.479 158.396L139.85 159.556ZM141.049 159.802C140.797 160.054 140.472 160.29 140.06 160.502L140.975 162.28C141.543 161.988 142.044 161.636 142.464 161.216L141.049 159.802ZM140.05 160.507C139.639 160.724 139.195 160.902 138.713 161.038L139.256 162.962C139.866 162.79 140.444 162.562 140.985 162.275L140.05 160.507ZM138.73 161.033C138.276 161.152 137.836 161.21 137.409 161.21V163.21C138.018 163.21 138.629 163.128 139.239 162.967L138.73 161.033ZM150.266 161.811L149.523 162.48L149.531 162.489L149.54 162.499L150.266 161.811ZM152.408 159.48L151.665 160.149L151.673 160.158L151.682 160.168L152.408 159.48ZM152.387 161.769L151.645 161.098L151.645 161.098L152.387 161.769ZM150.266 153.516L149.523 154.185L149.531 154.194L149.54 154.204L150.266 153.516ZM150.287 151.206L151.028 151.877L151.028 151.877L150.287 151.206ZM152.408 151.185L151.665 151.854L151.673 151.863L151.682 151.873L152.408 151.185ZM152.387 153.474L151.645 152.803L151.645 152.803L152.387 153.474ZM151.337 161.21C151.073 161.21 151.008 161.141 150.992 161.123L149.54 162.499C150.027 163.013 150.676 163.21 151.337 163.21V161.21ZM151.009 161.142C150.972 161.1 150.888 160.977 150.888 160.635H148.888C148.888 161.301 149.056 161.962 149.523 162.48L151.009 161.142ZM150.888 160.635C150.888 160.377 150.956 160.252 151.028 160.172L149.545 158.83C149.086 159.338 148.888 159.969 148.888 160.635H150.888ZM151.028 160.172C151.086 160.109 151.156 160.06 151.337 160.06V158.06C150.65 158.06 150.02 158.305 149.545 158.83L151.028 160.172ZM151.337 160.06C151.585 160.06 151.644 160.126 151.665 160.149L153.151 158.811C152.668 158.274 152.013 158.06 151.337 158.06V160.06ZM151.682 160.168C151.701 160.188 151.786 160.29 151.786 160.635H153.786C153.786 159.972 153.619 159.304 153.134 158.792L151.682 160.168ZM151.786 160.635C151.786 160.893 151.718 161.018 151.645 161.098L153.128 162.44C153.588 161.932 153.786 161.301 153.786 160.635H151.786ZM151.645 161.098C151.588 161.161 151.518 161.21 151.337 161.21V163.21C152.024 163.21 152.654 162.965 153.128 162.44L151.645 161.098ZM151.337 152.915C151.073 152.915 151.008 152.846 150.992 152.828L149.54 154.204C150.027 154.718 150.676 154.915 151.337 154.915V152.915ZM151.009 152.847C150.972 152.805 150.888 152.682 150.888 152.34H148.888C148.888 153.006 149.056 153.667 149.523 154.185L151.009 152.847ZM150.888 152.34C150.888 152.082 150.956 151.957 151.028 151.877L149.545 150.535C149.086 151.043 148.888 151.674 148.888 152.34H150.888ZM151.028 151.877C151.086 151.814 151.156 151.765 151.337 151.765V149.765C150.65 149.765 150.02 150.01 149.545 150.535L151.028 151.877ZM151.337 151.765C151.585 151.765 151.644 151.831 151.665 151.854L153.151 150.516C152.668 149.979 152.013 149.765 151.337 149.765V151.765ZM151.682 151.873C151.701 151.893 151.786 151.995 151.786 152.34H153.786C153.786 151.677 153.619 151.009 153.134 150.497L151.682 151.873ZM151.786 152.34C151.786 152.598 151.718 152.723 151.645 152.803L153.128 154.145C153.588 153.637 153.786 153.006 153.786 152.34H151.786ZM151.645 152.803C151.588 152.866 151.518 152.915 151.337 152.915V154.915C152.024 154.915 152.654 154.67 153.128 154.145L151.645 152.803ZM155.296 165.906L154.548 166.57L155.108 167.201L155.825 166.755L155.296 165.906ZM154.141 164.604L153.57 163.783L152.647 164.426L153.393 165.268L154.141 164.604ZM157.396 161.055L156.518 160.576L156.517 160.579L157.396 161.055ZM157.396 152.13L156.515 152.602L156.52 152.613L157.396 152.13ZM154.141 148.56L153.399 147.89L152.638 148.732L153.57 149.381L154.141 148.56ZM155.317 147.258L155.846 146.409L155.136 145.967L154.575 146.588L155.317 147.258ZM159.223 151.248L160.095 150.758L160.095 150.758L159.223 151.248ZM159.202 161.916L158.332 161.424L158.33 161.426L159.202 161.916ZM156.044 165.242L154.889 163.94L153.393 165.268L154.548 166.57L156.044 165.242ZM154.712 165.425C156.254 164.352 157.451 163.055 158.276 161.531L156.517 160.579C155.857 161.799 154.885 162.868 153.57 163.783L154.712 165.425ZM158.274 161.534C159.111 159.999 159.53 158.343 159.53 156.582H157.53C157.53 158.013 157.193 159.339 156.518 160.576L158.274 161.534ZM159.53 156.582C159.53 154.821 159.111 153.17 158.272 151.647L156.52 152.613C157.193 153.834 157.53 155.151 157.53 156.582H159.53ZM158.278 151.658C157.454 150.119 156.256 148.814 154.712 147.739L153.57 149.381C154.882 150.294 155.855 151.369 156.515 152.602L158.278 151.658ZM154.883 149.23L156.059 147.928L154.575 146.588L153.399 147.89L154.883 149.23ZM154.788 148.107C156.368 149.091 157.546 150.302 158.351 151.738L160.095 150.758C159.109 149.002 157.682 147.553 155.846 146.409L154.788 148.107ZM158.351 151.738C159.157 153.173 159.567 154.781 159.567 156.582H161.567C161.567 154.463 161.081 152.515 160.095 150.758L158.351 151.738ZM159.567 156.582C159.567 158.365 159.152 159.972 158.332 161.424L160.073 162.408C161.072 160.64 161.567 158.691 161.567 156.582H159.567ZM158.33 161.426C157.525 162.862 156.347 164.073 154.767 165.057L155.825 166.755C157.661 165.611 159.088 164.162 160.074 162.406L158.33 161.426Z" fill="#0000FF" fill-opacity="0.4"/>
</g>
<defs>
<filter id="filter0_dd_14_69" x="20.0524" y="10" width="209.895" height="185.5" filterUnits="userSpaceOnUse" color-interpolation-filters="sRGB">
<feFlood flood-opacity="0" result="BackgroundImageFix"/>
<feColorMatrix in="SourceAlpha" type="matrix" values="0 0 0 0 0 0 0 0 0 0 0 0 0 0 0 0 0 0 127 0" result="hardAlpha"/>
<feOffset dy="4"/>
<feGaussianBlur stdDeviation="2"/>
<feComposite in2="hardAlpha" operator="out"/>
<feColorMatrix type="matrix" values="0 0 0 0 0 0 0 0 0 0 0 0 0 0 0 0 0 0 0.25 0"/>
<feBlend mode="normal" in2="BackgroundImageFix" result="effect1_dropShadow_14_69"/>
<feColorMatrix in="SourceAlpha" type="matrix" values="0 0 0 0 0 0 0 0 0 0 0 0 0 0 0 0 0 0 127 0" result="hardAlpha"/>
<feOffset dy="4"/>
<feGaussianBlur stdDeviation="2"/>
<feComposite in2="hardAlpha" operator="out"/>
<feColorMatrix type="matrix" values="0 0 0 0 0 0 0 0 0 0 0 0 0 0 0 0 0 0 0.25 0"/>
<feBlend mode="normal" in2="effect1_dropShadow_14_69" result="effect2_dropShadow_14_69"/>
<feBlend mode="normal" in="SourceGraphic" in2="effect2_dropShadow_14_69" result="shape"/>
</filter>
<filter id="filter1_dd_14_69" x="69.7425" y="78.229" width="116.447" height="103.677" filterUnits="userSpaceOnUse" color-interpolation-filters="sRGB">
<feFlood flood-opacity="0" result="BackgroundImageFix"/>
<feColorMatrix in="SourceAlpha" type="matrix" values="0 0 0 0 0 0 0 0 0 0 0 0 0 0 0 0 0 0 127 0" result="hardAlpha"/>
<feOffset/>
<feGaussianBlur stdDeviation="8"/>
<feComposite in2="hardAlpha" operator="out"/>
<feColorMatrix type="matrix" values="0 0 0 0 0.994167 0 0 0 0 1 0 0 0 0 0.708333 0 0 0 1 0"/>
<feBlend mode="normal" in2="BackgroundImageFix" result="effect1_dropShadow_14_69"/>
<feColorMatrix in="SourceAlpha" type="matrix" values="0 0 0 0 0 0 0 0 0 0 0 0 0 0 0 0 0 0 127 0" result="hardAlpha"/>
<feOffset dy="4"/>
<feGaussianBlur stdDeviation="2"/>
<feComposite in2="hardAlpha" operator="out"/>
<feColorMatrix type="matrix" values="0 0 0 0 0 0 0 0 0 0 0 0 0 0 0 0 0 0 0.25 0"/>
<feBlend mode="normal" in2="effect1_dropShadow_14_69" result="effect2_dropShadow_14_69"/>
<feBlend mode="normal" in="SourceGraphic" in2="effect2_dropShadow_14_69" result="shape"/>
</filter>
</defs>
</svg>
