<svg width="250" height="250" viewBox="0 0 250 250" fill="none" xmlns="http://www.w3.org/2000/svg">
<path d="M128.329 15.0988L150.515 83.3815C151.385 86.0596 153.881 87.8729 156.697 87.8729H228.494C231.884 87.8729 233.294 92.2115 230.551 94.2044L172.466 136.405C170.188 138.061 169.235 140.995 170.105 143.673L192.291 211.955C193.339 215.18 189.648 217.861 186.905 215.869L128.821 173.667C126.542 172.012 123.458 172.012 121.179 173.667L63.0947 215.869C60.3517 217.861 56.661 215.18 57.7087 211.955L79.8951 143.673C80.7653 140.995 79.812 138.061 77.5338 136.405L19.4491 94.2044C16.7061 92.2115 18.1158 87.8729 21.5064 87.8729H93.303C96.119 87.8729 98.6147 86.0596 99.4849 83.3815L121.671 15.0988C122.719 11.8742 127.281 11.8742 128.329 15.0988Z" fill="#DAA520" fill-opacity="0.4" stroke="#FFFF9D" stroke-width="3"/>
<g filter="url(#filter0_dd_14_63)">
<path d="M110.508 109V92.2H113.052L119.172 102.16L117.948 102.136L124.14 92.2H126.54V109H123.948V102.112C123.948 100.672 123.98 99.376 124.044 98.224C124.124 97.072 124.252 95.928 124.428 94.792L124.764 95.68L119.268 104.176H117.684L112.356 95.776L112.62 94.792C112.796 95.864 112.916 96.968 112.98 98.104C113.06 99.224 113.1 100.56 113.1 102.112V109H110.508ZM132.738 114.52L135.282 108.64L135.306 110.608L129.018 96.4H131.898L135.834 105.664C135.914 105.824 136.01 106.072 136.122 106.408C136.234 106.728 136.33 107.048 136.41 107.368L135.786 107.512C135.914 107.176 136.034 106.84 136.146 106.504C136.274 106.168 136.394 105.832 136.506 105.496L139.794 96.4H142.722L137.538 109L135.402 114.52H132.738ZM100.891 139.24C99.9795 139.24 99.1315 139.12 98.3475 138.88C97.5795 138.64 96.8755 138.28 96.2355 137.8C95.6115 137.304 95.0515 136.696 94.5555 135.976L96.3315 133.936C97.1155 135.056 97.8675 135.832 98.5875 136.264C99.3075 136.696 100.163 136.912 101.155 136.912C101.763 136.912 102.315 136.816 102.811 136.624C103.307 136.432 103.699 136.168 103.987 135.832C104.275 135.496 104.419 135.112 104.419 134.68C104.419 134.392 104.371 134.12 104.275 133.864C104.179 133.608 104.027 133.376 103.819 133.168C103.627 132.96 103.371 132.768 103.051 132.592C102.747 132.416 102.387 132.264 101.971 132.136C101.555 131.992 101.075 131.872 100.531 131.776C99.6675 131.6 98.9155 131.368 98.2755 131.08C97.6355 130.792 97.0995 130.432 96.6675 130C96.2355 129.568 95.9155 129.08 95.7075 128.536C95.4995 127.976 95.3955 127.352 95.3955 126.664C95.3955 125.992 95.5395 125.368 95.8275 124.792C96.1315 124.216 96.5395 123.72 97.0515 123.304C97.5795 122.872 98.1955 122.544 98.8995 122.32C99.6035 122.08 100.363 121.96 101.179 121.96C102.043 121.96 102.835 122.072 103.555 122.296C104.275 122.52 104.915 122.856 105.475 123.304C106.035 123.736 106.499 124.272 106.867 124.912L105.043 126.712C104.723 126.184 104.363 125.744 103.963 125.392C103.563 125.024 103.123 124.752 102.643 124.576C102.163 124.384 101.651 124.288 101.107 124.288C100.483 124.288 99.9395 124.384 99.4755 124.576C99.0115 124.768 98.6435 125.04 98.3715 125.392C98.1155 125.728 97.9875 126.128 97.9875 126.592C97.9875 126.928 98.0515 127.24 98.1795 127.528C98.3075 127.8 98.4995 128.048 98.7555 128.272C99.0275 128.48 99.3875 128.672 99.8355 128.848C100.283 129.008 100.819 129.152 101.443 129.28C102.323 129.472 103.107 129.72 103.795 130.024C104.483 130.312 105.067 130.656 105.547 131.056C106.027 131.456 106.387 131.904 106.627 132.4C106.883 132.896 107.011 133.432 107.011 134.008C107.011 135.08 106.763 136.008 106.267 136.792C105.771 137.576 105.067 138.184 104.155 138.616C103.243 139.032 102.155 139.24 100.891 139.24ZM112.316 135.064L112.196 132.376L118.22 126.4H121.556L112.316 135.064ZM110.06 139V121.24H112.532V139H110.06ZM118.556 139L113.804 133.456L115.556 131.848L121.724 139H118.556ZM124.109 139V126.4H126.581V139H124.109ZM125.309 123.616C124.781 123.616 124.373 123.48 124.085 123.208C123.797 122.936 123.653 122.552 123.653 122.056C123.653 121.592 123.797 121.216 124.085 120.928C124.389 120.64 124.797 120.496 125.309 120.496C125.837 120.496 126.245 120.632 126.533 120.904C126.821 121.176 126.965 121.56 126.965 122.056C126.965 122.52 126.813 122.896 126.509 123.184C126.221 123.472 125.821 123.616 125.309 123.616ZM130.428 139V121.24H132.9V139H130.428ZM136.452 139V121.24H138.924V139H136.452ZM146.627 139.24C145.571 139.24 144.619 139.056 143.771 138.688C142.923 138.32 142.219 137.776 141.659 137.056L143.339 135.616C143.819 136.176 144.339 136.584 144.899 136.84C145.475 137.08 146.123 137.2 146.843 137.2C147.131 137.2 147.395 137.168 147.635 137.104C147.891 137.024 148.107 136.912 148.283 136.768C148.475 136.624 148.619 136.456 148.715 136.264C148.811 136.056 148.859 135.832 148.859 135.592C148.859 135.176 148.707 134.84 148.403 134.584C148.243 134.472 147.987 134.352 147.635 134.224C147.299 134.08 146.859 133.936 146.315 133.792C145.387 133.552 144.627 133.28 144.035 132.976C143.443 132.672 142.987 132.328 142.667 131.944C142.427 131.64 142.251 131.312 142.139 130.96C142.027 130.592 141.971 130.192 141.971 129.76C141.971 129.232 142.083 128.752 142.307 128.32C142.547 127.872 142.867 127.488 143.267 127.168C143.683 126.832 144.163 126.576 144.707 126.4C145.267 126.224 145.859 126.136 146.483 126.136C147.075 126.136 147.659 126.216 148.235 126.376C148.827 126.536 149.371 126.768 149.867 127.072C150.363 127.376 150.779 127.736 151.115 128.152L149.699 129.712C149.395 129.408 149.059 129.144 148.691 128.92C148.339 128.68 147.979 128.496 147.611 128.368C147.243 128.24 146.907 128.176 146.603 128.176C146.267 128.176 145.963 128.208 145.691 128.272C145.419 128.336 145.187 128.432 144.995 128.56C144.819 128.688 144.683 128.848 144.587 129.04C144.491 129.232 144.443 129.448 144.443 129.688C144.459 129.896 144.507 130.096 144.587 130.288C144.683 130.464 144.811 130.616 144.971 130.744C145.147 130.872 145.411 131.008 145.763 131.152C146.115 131.296 146.563 131.432 147.107 131.56C147.907 131.768 148.563 132 149.075 132.256C149.603 132.496 150.019 132.776 150.323 133.096C150.643 133.4 150.867 133.752 150.995 134.152C151.123 134.552 151.187 135 151.187 135.496C151.187 136.216 150.979 136.864 150.563 137.44C150.163 138 149.619 138.44 148.931 138.76C148.243 139.08 147.475 139.24 146.627 139.24ZM154.92 139.24C154.392 139.24 153.984 139.088 153.696 138.784C153.408 138.464 153.264 138.016 153.264 137.44C153.264 136.912 153.416 136.48 153.72 136.144C154.024 135.808 154.424 135.64 154.92 135.64C155.448 135.64 155.856 135.8 156.144 136.12C156.432 136.424 156.576 136.864 156.576 137.44C156.576 137.968 156.424 138.4 156.12 138.736C155.816 139.072 155.416 139.24 154.92 139.24ZM154.92 129.76C154.392 129.76 153.984 129.608 153.696 129.304C153.408 128.984 153.264 128.536 153.264 127.96C153.264 127.432 153.416 127 153.72 126.664C154.024 126.328 154.424 126.16 154.92 126.16C155.448 126.16 155.856 126.32 156.144 126.64C156.432 126.944 156.576 127.384 156.576 127.96C156.576 128.488 156.424 128.92 156.12 129.256C155.816 129.592 155.416 129.76 154.92 129.76Z" fill="white"/>
</g>
<defs>
<filter id="filter0_dd_14_63" x="78.5554" y="76.2" width="94.0201" height="79.04" filterUnits="userSpaceOnUse" color-interpolation-filters="sRGB">
<feFlood flood-opacity="0" result="BackgroundImageFix"/>
<feColorMatrix in="SourceAlpha" type="matrix" values="0 0 0 0 0 0 0 0 0 0 0 0 0 0 0 0 0 0 127 0" result="hardAlpha"/>
<feOffset/>
<feGaussianBlur stdDeviation="8"/>
<feComposite in2="hardAlpha" operator="out"/>
<feColorMatrix type="matrix" values="0 0 0 0 0.994167 0 0 0 0 1 0 0 0 0 0.708333 0 0 0 1 0"/>
<feBlend mode="normal" in2="BackgroundImageFix" result="effect1_dropShadow_14_63"/>
<feColorMatrix in="SourceAlpha" type="matrix" values="0 0 0 0 0 0 0 0 0 0 0 0 0 0 0 0 0 0 127 0" result="hardAlpha"/>
<feOffset dy="4"/>
<feGaussianBlur stdDeviation="2"/>
<feComposite in2="hardAlpha" operator="out"/>
<feColorMatrix type="matrix" values="0 0 0 0 0 0 0 0 0 0 0 0 0 0 0 0 0 0 0.25 0"/>
<feBlend mode="normal" in2="effect1_dropShadow_14_63" result="effect2_dropShadow_14_63"/>
<feBlend mode="normal" in="SourceGraphic" in2="effect2_dropShadow_14_63" result="shape"/>
</filter>
</defs>
</svg>
